<mxfile host="Electron" modified="2024-04-12T09:47:30.059Z" agent="Mozilla/5.0 (Windows NT 10.0; Win64; x64) AppleWebKit/537.36 (KHTML, like Gecko) draw.io/24.1.0 Chrome/120.0.6099.109 Electron/28.1.0 Safari/537.36" etag="ZVBlhjiFB1wkL8QTlbRV" version="24.1.0" type="device">
  <diagram name="第 1 页" id="Ye9Vdzjhh4pGuBgMLgJx">
    <mxGraphModel dx="3703" dy="3532" grid="1" gridSize="10" guides="1" tooltips="1" connect="1" arrows="1" fold="1" page="1" pageScale="1" pageWidth="827" pageHeight="1169" math="0" shadow="0">
      <root>
        <mxCell id="0" />
        <mxCell id="1" parent="0" />
        <mxCell id="ZBDFL56P3JJD4eZlMljl-42" value="" style="rounded=0;whiteSpace=wrap;html=1;fillColor=#fff2cc;strokeColor=#d6b656;dashed=1;" vertex="1" parent="1">
          <mxGeometry x="1480" y="-180" width="430" height="360" as="geometry" />
        </mxCell>
        <mxCell id="ZBDFL56P3JJD4eZlMljl-38" value="" style="rounded=0;whiteSpace=wrap;html=1;fillColor=#dae8fc;strokeColor=#6c8ebf;dashed=1;" vertex="1" parent="1">
          <mxGeometry x="980" y="-180" width="450" height="550" as="geometry" />
        </mxCell>
        <mxCell id="uGt8lklGZgvVp7n6hmtw-12" value="" style="rounded=0;whiteSpace=wrap;html=1;fillColor=#fff2cc;strokeColor=#d6b656;dashed=1;" parent="1" vertex="1">
          <mxGeometry x="-230" y="500" width="820" height="300" as="geometry" />
        </mxCell>
        <mxCell id="uGt8lklGZgvVp7n6hmtw-11" value="" style="rounded=0;whiteSpace=wrap;html=1;fillColor=#dae8fc;strokeColor=#6c8ebf;dashed=1;" parent="1" vertex="1">
          <mxGeometry x="-230" y="280" width="820" height="220" as="geometry" />
        </mxCell>
        <mxCell id="C5DE6ZinwFhIqG3FFzgF-4" value="" style="rounded=0;whiteSpace=wrap;html=1;fillColor=#fff2cc;strokeColor=#d6b656;strokeWidth=2;" parent="1" vertex="1">
          <mxGeometry x="-920" y="-460" width="620" height="130" as="geometry" />
        </mxCell>
        <mxCell id="C5DE6ZinwFhIqG3FFzgF-2" value="" style="rounded=0;whiteSpace=wrap;html=1;fillColor=#d5e8d4;strokeColor=#82b366;strokeWidth=2;" parent="1" vertex="1">
          <mxGeometry x="-920" y="-830" width="620" height="240" as="geometry" />
        </mxCell>
        <mxCell id="C5DE6ZinwFhIqG3FFzgF-3" value="" style="rounded=0;whiteSpace=wrap;html=1;fillColor=#dae8fc;strokeColor=#6c8ebf;strokeWidth=2;" parent="1" vertex="1">
          <mxGeometry x="-920" y="-580" width="620" height="110" as="geometry" />
        </mxCell>
        <mxCell id="C5DE6ZinwFhIqG3FFzgF-1" value="" style="rounded=0;whiteSpace=wrap;html=1;fillColor=#f8cecc;strokeColor=#b85450;strokeWidth=2;" parent="1" vertex="1">
          <mxGeometry x="-920" y="-1090" width="620" height="250" as="geometry" />
        </mxCell>
        <mxCell id="QqCahTS9jlHSjSnj5ugb-54" value="" style="rounded=0;whiteSpace=wrap;html=1;strokeWidth=2;" parent="1" vertex="1">
          <mxGeometry x="660" y="-1080" width="980" height="650" as="geometry" />
        </mxCell>
        <mxCell id="QqCahTS9jlHSjSnj5ugb-37" value="" style="rounded=0;whiteSpace=wrap;html=1;dashed=1;" parent="1" vertex="1">
          <mxGeometry x="740" y="-1060" width="800" height="280" as="geometry" />
        </mxCell>
        <mxCell id="-caN3-fQfj51fVVMVL18-6" value="&lt;b style=&quot;&quot;&gt;&lt;font style=&quot;font-size: 30px;&quot; face=&quot;Times New Roman&quot;&gt;Geometry&lt;/font&gt;&lt;/b&gt;" style="rounded=0;whiteSpace=wrap;html=1;strokeWidth=2;" parent="1" vertex="1">
          <mxGeometry x="1250" y="-1050" width="270" height="80" as="geometry" />
        </mxCell>
        <mxCell id="QqCahTS9jlHSjSnj5ugb-3" value="&lt;font face=&quot;Times New Roman&quot;&gt;&lt;span style=&quot;font-size: 30px;&quot;&gt;&lt;b&gt;Point&lt;/b&gt;&lt;/span&gt;&lt;/font&gt;" style="rounded=0;whiteSpace=wrap;html=1;" parent="1" vertex="1">
          <mxGeometry x="1270" y="-940" width="210" height="40" as="geometry" />
        </mxCell>
        <mxCell id="QqCahTS9jlHSjSnj5ugb-4" value="&lt;b style=&quot;&quot;&gt;&lt;font style=&quot;font-size: 30px;&quot; face=&quot;Times New Roman&quot;&gt;GeometryCollection&lt;/font&gt;&lt;/b&gt;" style="rounded=0;whiteSpace=wrap;html=1;strokeWidth=2;" parent="1" vertex="1">
          <mxGeometry x="760" y="-1050" width="340" height="80" as="geometry" />
        </mxCell>
        <mxCell id="QqCahTS9jlHSjSnj5ugb-5" value="&lt;font face=&quot;Times New Roman&quot;&gt;&lt;span style=&quot;font-size: 30px;&quot;&gt;&lt;b&gt;LineString&lt;/b&gt;&lt;/span&gt;&lt;/font&gt;" style="rounded=0;whiteSpace=wrap;html=1;" parent="1" vertex="1">
          <mxGeometry x="1270" y="-900" width="210" height="40" as="geometry" />
        </mxCell>
        <mxCell id="QqCahTS9jlHSjSnj5ugb-6" value="&lt;font face=&quot;Times New Roman&quot;&gt;&lt;span style=&quot;font-size: 30px;&quot;&gt;&lt;b&gt;Polygon&lt;/b&gt;&lt;/span&gt;&lt;/font&gt;" style="rounded=0;whiteSpace=wrap;html=1;" parent="1" vertex="1">
          <mxGeometry x="1270" y="-860" width="210" height="40" as="geometry" />
        </mxCell>
        <mxCell id="QqCahTS9jlHSjSnj5ugb-8" value="&lt;font face=&quot;Times New Roman&quot;&gt;&lt;span style=&quot;font-size: 30px;&quot;&gt;&lt;b&gt;MultiPoint&lt;/b&gt;&lt;/span&gt;&lt;/font&gt;" style="rounded=0;whiteSpace=wrap;html=1;" parent="1" vertex="1">
          <mxGeometry x="800" y="-940" width="280" height="40" as="geometry" />
        </mxCell>
        <mxCell id="QqCahTS9jlHSjSnj5ugb-9" value="&lt;font face=&quot;Times New Roman&quot;&gt;&lt;span style=&quot;font-size: 30px;&quot;&gt;&lt;b&gt;MultiLineString&lt;/b&gt;&lt;/span&gt;&lt;/font&gt;" style="rounded=0;whiteSpace=wrap;html=1;" parent="1" vertex="1">
          <mxGeometry x="800" y="-900" width="280" height="40" as="geometry" />
        </mxCell>
        <mxCell id="QqCahTS9jlHSjSnj5ugb-10" value="&lt;font face=&quot;Times New Roman&quot;&gt;&lt;span style=&quot;font-size: 30px;&quot;&gt;&lt;b&gt;MultiPolygon&lt;/b&gt;&lt;/span&gt;&lt;/font&gt;" style="rounded=0;whiteSpace=wrap;html=1;" parent="1" vertex="1">
          <mxGeometry x="800" y="-860" width="280" height="40" as="geometry" />
        </mxCell>
        <mxCell id="QqCahTS9jlHSjSnj5ugb-41" style="edgeStyle=orthogonalEdgeStyle;rounded=0;orthogonalLoop=1;jettySize=auto;html=1;entryX=1;entryY=0.5;entryDx=0;entryDy=0;" parent="1" source="QqCahTS9jlHSjSnj5ugb-11" target="QqCahTS9jlHSjSnj5ugb-37" edge="1">
          <mxGeometry relative="1" as="geometry" />
        </mxCell>
        <mxCell id="QqCahTS9jlHSjSnj5ugb-11" value="&lt;font face=&quot;Times New Roman&quot;&gt;&lt;span style=&quot;font-size: 30px;&quot;&gt;&lt;b&gt;Factory&lt;/b&gt;&lt;/span&gt;&lt;/font&gt;" style="rounded=0;whiteSpace=wrap;html=1;" parent="1" vertex="1">
          <mxGeometry x="1158" y="-740" width="260" height="80" as="geometry" />
        </mxCell>
        <mxCell id="QqCahTS9jlHSjSnj5ugb-12" value="&lt;font face=&quot;Times New Roman&quot;&gt;&lt;span style=&quot;font-size: 30px;&quot;&gt;&lt;b&gt;fromFeature&lt;/b&gt;&lt;/span&gt;&lt;/font&gt;" style="rounded=0;whiteSpace=wrap;html=1;" parent="1" vertex="1">
          <mxGeometry x="1158" y="-660" width="220" height="40" as="geometry" />
        </mxCell>
        <mxCell id="QqCahTS9jlHSjSnj5ugb-13" value="&lt;font face=&quot;Times New Roman&quot;&gt;&lt;span style=&quot;font-size: 30px;&quot;&gt;&lt;b&gt;fromGeometry&lt;/b&gt;&lt;/span&gt;&lt;/font&gt;" style="rounded=0;whiteSpace=wrap;html=1;" parent="1" vertex="1">
          <mxGeometry x="1158" y="-620" width="220" height="40" as="geometry" />
        </mxCell>
        <mxCell id="QqCahTS9jlHSjSnj5ugb-40" style="edgeStyle=orthogonalEdgeStyle;rounded=0;orthogonalLoop=1;jettySize=auto;html=1;" parent="1" source="QqCahTS9jlHSjSnj5ugb-24" target="QqCahTS9jlHSjSnj5ugb-12" edge="1">
          <mxGeometry relative="1" as="geometry" />
        </mxCell>
        <mxCell id="QqCahTS9jlHSjSnj5ugb-24" value="&lt;font face=&quot;Times New Roman&quot;&gt;&lt;span style=&quot;font-size: 30px;&quot;&gt;&lt;b&gt;GeoJSON&lt;/b&gt;&lt;/span&gt;&lt;/font&gt;" style="rounded=0;whiteSpace=wrap;html=1;strokeWidth=2;" parent="1" vertex="1">
          <mxGeometry x="740" y="-740" width="280" height="80" as="geometry" />
        </mxCell>
        <mxCell id="QqCahTS9jlHSjSnj5ugb-26" value="&lt;font face=&quot;Times New Roman&quot;&gt;&lt;span style=&quot;font-size: 30px;&quot;&gt;&lt;b&gt;Feature&lt;/b&gt;&lt;/span&gt;&lt;/font&gt;" style="rounded=0;whiteSpace=wrap;html=1;strokeWidth=2;" parent="1" vertex="1">
          <mxGeometry x="740" y="-660" width="240" height="80" as="geometry" />
        </mxCell>
        <mxCell id="QqCahTS9jlHSjSnj5ugb-28" value="&lt;font face=&quot;Times New Roman&quot;&gt;&lt;span style=&quot;font-size: 30px;&quot;&gt;&lt;b&gt;Properties&lt;/b&gt;&lt;/span&gt;&lt;/font&gt;" style="rounded=0;whiteSpace=wrap;html=1;" parent="1" vertex="1">
          <mxGeometry x="740" y="-540" width="200" height="40" as="geometry" />
        </mxCell>
        <mxCell id="QqCahTS9jlHSjSnj5ugb-29" value="&lt;font face=&quot;Times New Roman&quot;&gt;&lt;span style=&quot;font-size: 30px;&quot;&gt;&lt;b&gt;bbox&lt;/b&gt;&lt;/span&gt;&lt;/font&gt;" style="rounded=0;whiteSpace=wrap;html=1;dashed=1;" parent="1" vertex="1">
          <mxGeometry x="740" y="-500" width="200" height="40" as="geometry" />
        </mxCell>
        <mxCell id="QqCahTS9jlHSjSnj5ugb-32" value="" style="endArrow=none;html=1;endSize=12;startArrow=diamondThin;startSize=14;startFill=0;align=left;verticalAlign=bottom;rounded=0;endFill=0;edgeStyle=orthogonalEdgeStyle;" parent="1" source="QqCahTS9jlHSjSnj5ugb-8" target="QqCahTS9jlHSjSnj5ugb-3" edge="1">
          <mxGeometry x="-1" y="3" relative="1" as="geometry">
            <mxPoint x="1080" y="-915.5" as="sourcePoint" />
            <mxPoint x="1240" y="-915.5" as="targetPoint" />
          </mxGeometry>
        </mxCell>
        <mxCell id="QqCahTS9jlHSjSnj5ugb-33" value="" style="endArrow=none;html=1;endSize=12;startArrow=diamondThin;startSize=14;startFill=0;edgeStyle=orthogonalEdgeStyle;align=left;verticalAlign=bottom;rounded=0;endFill=0;" parent="1" source="QqCahTS9jlHSjSnj5ugb-9" target="QqCahTS9jlHSjSnj5ugb-5" edge="1">
          <mxGeometry x="-1" y="3" relative="1" as="geometry">
            <mxPoint x="1110" y="-910" as="sourcePoint" />
            <mxPoint x="1260" y="-910" as="targetPoint" />
          </mxGeometry>
        </mxCell>
        <mxCell id="QqCahTS9jlHSjSnj5ugb-34" value="" style="endArrow=none;html=1;endSize=12;startArrow=diamondThin;startSize=14;startFill=0;edgeStyle=orthogonalEdgeStyle;align=left;verticalAlign=bottom;rounded=0;endFill=0;" parent="1" source="QqCahTS9jlHSjSnj5ugb-10" target="QqCahTS9jlHSjSnj5ugb-6" edge="1">
          <mxGeometry x="-1" y="3" relative="1" as="geometry">
            <mxPoint x="1120" y="-900" as="sourcePoint" />
            <mxPoint x="1270" y="-900" as="targetPoint" />
          </mxGeometry>
        </mxCell>
        <mxCell id="QqCahTS9jlHSjSnj5ugb-35" value="" style="endArrow=none;html=1;endSize=12;startArrow=diamondThin;startSize=14;startFill=0;align=left;verticalAlign=bottom;rounded=0;endFill=0;edgeStyle=orthogonalEdgeStyle;" parent="1" source="QqCahTS9jlHSjSnj5ugb-4" target="-caN3-fQfj51fVVMVL18-6" edge="1">
          <mxGeometry x="-1" y="3" relative="1" as="geometry">
            <mxPoint x="1110" y="-910" as="sourcePoint" />
            <mxPoint x="1260" y="-910" as="targetPoint" />
          </mxGeometry>
        </mxCell>
        <mxCell id="QqCahTS9jlHSjSnj5ugb-39" style="edgeStyle=orthogonalEdgeStyle;rounded=0;orthogonalLoop=1;jettySize=auto;html=1;exitX=1;exitY=0.5;exitDx=0;exitDy=0;entryX=0;entryY=0.5;entryDx=0;entryDy=0;" parent="1" source="QqCahTS9jlHSjSnj5ugb-36" target="QqCahTS9jlHSjSnj5ugb-13" edge="1">
          <mxGeometry relative="1" as="geometry" />
        </mxCell>
        <mxCell id="QqCahTS9jlHSjSnj5ugb-36" value="&lt;font face=&quot;Times New Roman&quot;&gt;&lt;span style=&quot;font-size: 30px;&quot;&gt;&lt;b&gt;Geometry&lt;/b&gt;&lt;/span&gt;&lt;/font&gt;" style="rounded=0;whiteSpace=wrap;html=1;" parent="1" vertex="1">
          <mxGeometry x="740" y="-580" width="200" height="40" as="geometry" />
        </mxCell>
        <mxCell id="QqCahTS9jlHSjSnj5ugb-42" value="&lt;font face=&quot;Times New Roman&quot;&gt;&lt;span style=&quot;font-size: 30px;&quot;&gt;&lt;b&gt;geometry&lt;/b&gt;&lt;/span&gt;&lt;/font&gt;" style="rounded=0;whiteSpace=wrap;html=1;strokeWidth=2;" parent="1" vertex="1">
          <mxGeometry x="-215" y="540" width="450" height="80" as="geometry" />
        </mxCell>
        <mxCell id="QqCahTS9jlHSjSnj5ugb-43" value="&lt;div style=&quot;text-align: start;&quot;&gt;&lt;span style=&quot;background-color: initial; text-align: center; font-size: 30px;&quot;&gt;&lt;font face=&quot;Times New Roman&quot;&gt;&lt;b&gt;triangulation&lt;/b&gt;&lt;/font&gt;&lt;/span&gt;&lt;span style=&quot;background-color: initial; text-wrap: nowrap; color: rgba(0, 0, 0, 0); font-family: monospace; font-size: 0px;&quot;&gt;%3CmxGraphModel%3E%3Croot%3E%3CmxCell%20id%3D%220%22%2F%3E%3CmxCell%20id%3D%221%22%20parent%3D%220%22%2F%3E%3CmxCell%20id%3D%222%22%20value%3D%22%26lt%3Bfont%20face%3D%26quot%3BTimes%20New%20Roman%26quot%3B%26gt%3B%26lt%3Bspan%20style%3D%26quot%3Bfont-size%3A%2030px%3B%26quot%3B%26gt%3B%26lt%3Bb%26gt%3BGeometry%26lt%3B%2Fb%26gt%3B%26lt%3B%2Fspan%26gt%3B%26lt%3B%2Ffont%26gt%3B%22%20style%3D%22rounded%3D0%3BwhiteSpace%3Dwrap%3Bhtml%3D1%3BstrokeWidth%3D2%3B%22%20vertex%3D%221%22%20parent%3D%221%22%3E%3CmxGeometry%20x%3D%22470%22%20y%3D%22850%22%20width%3D%22280%22%20height%3D%2280%22%20as%3D%22geometry%22%2F%3E%3C%2FmxCell%3E%3C%2Froot%3E%3C%2FmxGraphModel%3E&lt;/span&gt;&lt;span style=&quot;background-color: initial; text-wrap: nowrap; font-size: 0px;&quot;&gt;&lt;font face=&quot;monospace&quot; color=&quot;rgba(0, 0, 0, 0)&quot;&gt;triangulatio&lt;/font&gt;&lt;/span&gt;&lt;/div&gt;" style="rounded=0;whiteSpace=wrap;html=1;strokeWidth=2;" parent="1" vertex="1">
          <mxGeometry x="10" y="320" width="230" height="80" as="geometry" />
        </mxCell>
        <mxCell id="QqCahTS9jlHSjSnj5ugb-44" value="&lt;div style=&quot;text-align: center;&quot;&gt;&lt;font&gt;&lt;span style=&quot;font-size: 30px;&quot;&gt;&lt;b&gt;cluster&lt;/b&gt;&lt;/span&gt;&lt;/font&gt;&lt;/div&gt;" style="rounded=0;whiteSpace=wrap;html=1;strokeWidth=2;fontFamily=Times New Roman;" parent="1" vertex="1">
          <mxGeometry x="-120" y="320" width="130" height="80" as="geometry" />
        </mxCell>
        <mxCell id="QqCahTS9jlHSjSnj5ugb-45" value="&lt;div style=&quot;text-align: center;&quot;&gt;&lt;font face=&quot;Times New Roman&quot;&gt;&lt;span style=&quot;font-size: 30px;&quot;&gt;&lt;b&gt;core&lt;/b&gt;&lt;/span&gt;&lt;/font&gt;&lt;/div&gt;" style="rounded=0;whiteSpace=wrap;html=1;strokeWidth=2;" parent="1" vertex="1">
          <mxGeometry x="-215" y="700" width="370" height="80" as="geometry" />
        </mxCell>
        <mxCell id="QqCahTS9jlHSjSnj5ugb-46" value="&lt;div style=&quot;text-align: center;&quot;&gt;&lt;font face=&quot;Times New Roman&quot;&gt;&lt;span style=&quot;font-size: 30px;&quot;&gt;&lt;b&gt;coverage&lt;/b&gt;&lt;/span&gt;&lt;/font&gt;&lt;/div&gt;" style="rounded=0;whiteSpace=wrap;html=1;strokeWidth=2;" parent="1" vertex="1">
          <mxGeometry x="292" y="620" width="283" height="80" as="geometry" />
        </mxCell>
        <mxCell id="QqCahTS9jlHSjSnj5ugb-48" value="&lt;div style=&quot;text-align: center;&quot;&gt;&lt;font face=&quot;Times New Roman&quot;&gt;&lt;span style=&quot;font-size: 30px;&quot;&gt;&lt;b&gt;geo&lt;/b&gt;&lt;/span&gt;&lt;/font&gt;&lt;/div&gt;" style="rounded=0;whiteSpace=wrap;html=1;strokeWidth=2;" parent="1" vertex="1">
          <mxGeometry x="2" y="620" width="290" height="80" as="geometry" />
        </mxCell>
        <mxCell id="QqCahTS9jlHSjSnj5ugb-49" value="&lt;div style=&quot;text-align: center;&quot;&gt;&lt;font face=&quot;Times New Roman&quot;&gt;&lt;span style=&quot;font-size: 30px;&quot;&gt;&lt;b&gt;math&lt;/b&gt;&lt;/span&gt;&lt;/font&gt;&lt;/div&gt;" style="rounded=0;whiteSpace=wrap;html=1;strokeWidth=2;" parent="1" vertex="1">
          <mxGeometry x="155" y="700" width="420" height="80" as="geometry" />
        </mxCell>
        <mxCell id="QqCahTS9jlHSjSnj5ugb-50" value="&lt;div style=&quot;text-align: center;&quot;&gt;&lt;font face=&quot;Times New Roman&quot;&gt;&lt;span style=&quot;font-size: 30px;&quot;&gt;&lt;b&gt;net&lt;/b&gt;&lt;/span&gt;&lt;/font&gt;&lt;/div&gt;" style="rounded=0;whiteSpace=wrap;html=1;strokeWidth=2;" parent="1" vertex="1">
          <mxGeometry x="-215" y="320" width="95" height="80" as="geometry" />
        </mxCell>
        <mxCell id="QqCahTS9jlHSjSnj5ugb-51" value="&lt;div style=&quot;text-align: center;&quot;&gt;&lt;font face=&quot;Times New Roman&quot;&gt;&lt;span style=&quot;font-size: 30px;&quot;&gt;&lt;b&gt;render&lt;/b&gt;&lt;/span&gt;&lt;/font&gt;&lt;/div&gt;" style="rounded=0;whiteSpace=wrap;html=1;strokeWidth=2;" parent="1" vertex="1">
          <mxGeometry x="235" y="540" width="340" height="80" as="geometry" />
        </mxCell>
        <mxCell id="QqCahTS9jlHSjSnj5ugb-52" value="&lt;div style=&quot;text-align: center;&quot;&gt;&lt;font face=&quot;Times New Roman&quot;&gt;&lt;span style=&quot;font-size: 30px;&quot;&gt;&lt;b&gt;topology&lt;/b&gt;&lt;/span&gt;&lt;/font&gt;&lt;/div&gt;" style="rounded=0;whiteSpace=wrap;html=1;strokeWidth=2;" parent="1" vertex="1">
          <mxGeometry x="-215" y="400" width="455" height="80" as="geometry" />
        </mxCell>
        <mxCell id="g4PYNpOqLdrN4MoXZKpE-54" value="" style="group" parent="1" vertex="1" connectable="0">
          <mxGeometry x="80" y="-960" width="40" height="40" as="geometry" />
        </mxCell>
        <mxCell id="g4PYNpOqLdrN4MoXZKpE-1" value="" style="whiteSpace=wrap;html=1;aspect=fixed;" parent="g4PYNpOqLdrN4MoXZKpE-54" vertex="1">
          <mxGeometry width="40" height="40" as="geometry" />
        </mxCell>
        <mxCell id="g4PYNpOqLdrN4MoXZKpE-17" value="" style="ellipse;whiteSpace=wrap;html=1;aspect=fixed;strokeColor=default;fillColor=#000000;strokeWidth=1;" parent="g4PYNpOqLdrN4MoXZKpE-54" vertex="1">
          <mxGeometry x="17.5" y="17.5" width="5" height="5" as="geometry" />
        </mxCell>
        <mxCell id="g4PYNpOqLdrN4MoXZKpE-18" value="" style="endArrow=none;html=1;strokeWidth=1;rounded=0;exitX=0.781;exitY=0.515;exitDx=0;exitDy=0;exitPerimeter=0;entryX=0;entryY=0.5;entryDx=0;entryDy=0;strokeColor=#000000;dashed=1;" parent="g4PYNpOqLdrN4MoXZKpE-54" source="g4PYNpOqLdrN4MoXZKpE-17" edge="1">
          <mxGeometry width="50" height="50" relative="1" as="geometry">
            <mxPoint x="60" y="90" as="sourcePoint" />
            <mxPoint x="40" y="20" as="targetPoint" />
          </mxGeometry>
        </mxCell>
        <mxCell id="g4PYNpOqLdrN4MoXZKpE-19" value="" style="endArrow=none;html=1;strokeWidth=1;rounded=0;exitX=0.5;exitY=1;exitDx=0;exitDy=0;entryX=0.5;entryY=1;entryDx=0;entryDy=0;strokeColor=#000000;dashed=1;" parent="g4PYNpOqLdrN4MoXZKpE-54" source="g4PYNpOqLdrN4MoXZKpE-17" target="g4PYNpOqLdrN4MoXZKpE-1" edge="1">
          <mxGeometry width="50" height="50" relative="1" as="geometry">
            <mxPoint x="31" y="30" as="sourcePoint" />
            <mxPoint x="50" y="30" as="targetPoint" />
          </mxGeometry>
        </mxCell>
        <mxCell id="g4PYNpOqLdrN4MoXZKpE-20" value="" style="endArrow=none;html=1;strokeWidth=1;rounded=0;exitX=0;exitY=0.5;exitDx=0;exitDy=0;strokeColor=#000000;dashed=1;" parent="g4PYNpOqLdrN4MoXZKpE-54" source="g4PYNpOqLdrN4MoXZKpE-1" edge="1">
          <mxGeometry width="50" height="50" relative="1" as="geometry">
            <mxPoint x="41" y="40" as="sourcePoint" />
            <mxPoint x="20" y="20" as="targetPoint" />
          </mxGeometry>
        </mxCell>
        <mxCell id="g4PYNpOqLdrN4MoXZKpE-21" value="" style="endArrow=none;html=1;strokeWidth=1;rounded=0;exitX=0.5;exitY=0;exitDx=0;exitDy=0;strokeColor=#000000;dashed=1;" parent="g4PYNpOqLdrN4MoXZKpE-54" source="g4PYNpOqLdrN4MoXZKpE-1" edge="1">
          <mxGeometry width="50" height="50" relative="1" as="geometry">
            <mxPoint x="51" y="50" as="sourcePoint" />
            <mxPoint x="20" y="20" as="targetPoint" />
          </mxGeometry>
        </mxCell>
        <mxCell id="g4PYNpOqLdrN4MoXZKpE-55" value="" style="group" parent="1" vertex="1" connectable="0">
          <mxGeometry x="120" y="-960" width="40" height="40" as="geometry" />
        </mxCell>
        <mxCell id="g4PYNpOqLdrN4MoXZKpE-56" value="" style="whiteSpace=wrap;html=1;aspect=fixed;" parent="g4PYNpOqLdrN4MoXZKpE-55" vertex="1">
          <mxGeometry width="40" height="40" as="geometry" />
        </mxCell>
        <mxCell id="g4PYNpOqLdrN4MoXZKpE-57" value="" style="ellipse;whiteSpace=wrap;html=1;aspect=fixed;strokeColor=default;fillColor=#000000;strokeWidth=1;" parent="g4PYNpOqLdrN4MoXZKpE-55" vertex="1">
          <mxGeometry x="17.5" y="17.5" width="5" height="5" as="geometry" />
        </mxCell>
        <mxCell id="g4PYNpOqLdrN4MoXZKpE-58" value="" style="endArrow=none;html=1;strokeWidth=1;rounded=0;exitX=0.781;exitY=0.515;exitDx=0;exitDy=0;exitPerimeter=0;entryX=0;entryY=0.5;entryDx=0;entryDy=0;strokeColor=#000000;dashed=1;" parent="g4PYNpOqLdrN4MoXZKpE-55" source="g4PYNpOqLdrN4MoXZKpE-57" edge="1">
          <mxGeometry width="50" height="50" relative="1" as="geometry">
            <mxPoint x="60" y="90" as="sourcePoint" />
            <mxPoint x="40" y="20" as="targetPoint" />
          </mxGeometry>
        </mxCell>
        <mxCell id="g4PYNpOqLdrN4MoXZKpE-59" value="" style="endArrow=none;html=1;strokeWidth=1;rounded=0;exitX=0.5;exitY=1;exitDx=0;exitDy=0;entryX=0.5;entryY=1;entryDx=0;entryDy=0;strokeColor=#000000;dashed=1;" parent="g4PYNpOqLdrN4MoXZKpE-55" source="g4PYNpOqLdrN4MoXZKpE-57" target="g4PYNpOqLdrN4MoXZKpE-56" edge="1">
          <mxGeometry width="50" height="50" relative="1" as="geometry">
            <mxPoint x="31" y="30" as="sourcePoint" />
            <mxPoint x="50" y="30" as="targetPoint" />
          </mxGeometry>
        </mxCell>
        <mxCell id="g4PYNpOqLdrN4MoXZKpE-60" value="" style="endArrow=none;html=1;strokeWidth=1;rounded=0;exitX=0;exitY=0.5;exitDx=0;exitDy=0;strokeColor=#000000;dashed=1;" parent="g4PYNpOqLdrN4MoXZKpE-55" source="g4PYNpOqLdrN4MoXZKpE-56" edge="1">
          <mxGeometry width="50" height="50" relative="1" as="geometry">
            <mxPoint x="41" y="40" as="sourcePoint" />
            <mxPoint x="20" y="20" as="targetPoint" />
          </mxGeometry>
        </mxCell>
        <mxCell id="g4PYNpOqLdrN4MoXZKpE-61" value="" style="endArrow=none;html=1;strokeWidth=1;rounded=0;exitX=0.5;exitY=0;exitDx=0;exitDy=0;strokeColor=#000000;dashed=1;" parent="g4PYNpOqLdrN4MoXZKpE-55" source="g4PYNpOqLdrN4MoXZKpE-56" edge="1">
          <mxGeometry width="50" height="50" relative="1" as="geometry">
            <mxPoint x="51" y="50" as="sourcePoint" />
            <mxPoint x="20" y="20" as="targetPoint" />
          </mxGeometry>
        </mxCell>
        <mxCell id="g4PYNpOqLdrN4MoXZKpE-63" value="" style="group" parent="1" vertex="1" connectable="0">
          <mxGeometry x="80" y="-920" width="40" height="40" as="geometry" />
        </mxCell>
        <mxCell id="g4PYNpOqLdrN4MoXZKpE-64" value="" style="whiteSpace=wrap;html=1;aspect=fixed;" parent="g4PYNpOqLdrN4MoXZKpE-63" vertex="1">
          <mxGeometry width="40" height="40" as="geometry" />
        </mxCell>
        <mxCell id="g4PYNpOqLdrN4MoXZKpE-65" value="" style="ellipse;whiteSpace=wrap;html=1;aspect=fixed;strokeColor=default;fillColor=#000000;strokeWidth=1;" parent="g4PYNpOqLdrN4MoXZKpE-63" vertex="1">
          <mxGeometry x="17.5" y="17.5" width="5" height="5" as="geometry" />
        </mxCell>
        <mxCell id="g4PYNpOqLdrN4MoXZKpE-66" value="" style="endArrow=none;html=1;strokeWidth=1;rounded=0;exitX=0.781;exitY=0.515;exitDx=0;exitDy=0;exitPerimeter=0;entryX=0;entryY=0.5;entryDx=0;entryDy=0;strokeColor=#000000;dashed=1;" parent="g4PYNpOqLdrN4MoXZKpE-63" source="g4PYNpOqLdrN4MoXZKpE-65" edge="1">
          <mxGeometry width="50" height="50" relative="1" as="geometry">
            <mxPoint x="60" y="90" as="sourcePoint" />
            <mxPoint x="40" y="20" as="targetPoint" />
          </mxGeometry>
        </mxCell>
        <mxCell id="g4PYNpOqLdrN4MoXZKpE-67" value="" style="endArrow=none;html=1;strokeWidth=1;rounded=0;exitX=0.5;exitY=1;exitDx=0;exitDy=0;entryX=0.5;entryY=1;entryDx=0;entryDy=0;strokeColor=#000000;dashed=1;" parent="g4PYNpOqLdrN4MoXZKpE-63" source="g4PYNpOqLdrN4MoXZKpE-65" target="g4PYNpOqLdrN4MoXZKpE-64" edge="1">
          <mxGeometry width="50" height="50" relative="1" as="geometry">
            <mxPoint x="31" y="30" as="sourcePoint" />
            <mxPoint x="50" y="30" as="targetPoint" />
          </mxGeometry>
        </mxCell>
        <mxCell id="g4PYNpOqLdrN4MoXZKpE-68" value="" style="endArrow=none;html=1;strokeWidth=1;rounded=0;exitX=0;exitY=0.5;exitDx=0;exitDy=0;strokeColor=#000000;dashed=1;" parent="g4PYNpOqLdrN4MoXZKpE-63" source="g4PYNpOqLdrN4MoXZKpE-64" edge="1">
          <mxGeometry width="50" height="50" relative="1" as="geometry">
            <mxPoint x="41" y="40" as="sourcePoint" />
            <mxPoint x="20" y="20" as="targetPoint" />
          </mxGeometry>
        </mxCell>
        <mxCell id="g4PYNpOqLdrN4MoXZKpE-69" value="" style="endArrow=none;html=1;strokeWidth=1;rounded=0;exitX=0.5;exitY=0;exitDx=0;exitDy=0;strokeColor=#000000;dashed=1;" parent="g4PYNpOqLdrN4MoXZKpE-63" source="g4PYNpOqLdrN4MoXZKpE-64" edge="1">
          <mxGeometry width="50" height="50" relative="1" as="geometry">
            <mxPoint x="51" y="50" as="sourcePoint" />
            <mxPoint x="20" y="20" as="targetPoint" />
          </mxGeometry>
        </mxCell>
        <mxCell id="g4PYNpOqLdrN4MoXZKpE-70" value="" style="group" parent="1" vertex="1" connectable="0">
          <mxGeometry x="120" y="-920" width="40" height="40" as="geometry" />
        </mxCell>
        <mxCell id="g4PYNpOqLdrN4MoXZKpE-71" value="" style="whiteSpace=wrap;html=1;aspect=fixed;" parent="g4PYNpOqLdrN4MoXZKpE-70" vertex="1">
          <mxGeometry width="40" height="40" as="geometry" />
        </mxCell>
        <mxCell id="g4PYNpOqLdrN4MoXZKpE-72" value="" style="ellipse;whiteSpace=wrap;html=1;aspect=fixed;strokeColor=default;fillColor=#000000;strokeWidth=1;" parent="g4PYNpOqLdrN4MoXZKpE-70" vertex="1">
          <mxGeometry x="17.5" y="17.5" width="5" height="5" as="geometry" />
        </mxCell>
        <mxCell id="g4PYNpOqLdrN4MoXZKpE-73" value="" style="endArrow=none;html=1;strokeWidth=1;rounded=0;exitX=0.781;exitY=0.515;exitDx=0;exitDy=0;exitPerimeter=0;entryX=0;entryY=0.5;entryDx=0;entryDy=0;strokeColor=#000000;dashed=1;" parent="g4PYNpOqLdrN4MoXZKpE-70" source="g4PYNpOqLdrN4MoXZKpE-72" edge="1">
          <mxGeometry width="50" height="50" relative="1" as="geometry">
            <mxPoint x="60" y="90" as="sourcePoint" />
            <mxPoint x="40" y="20" as="targetPoint" />
          </mxGeometry>
        </mxCell>
        <mxCell id="g4PYNpOqLdrN4MoXZKpE-74" value="" style="endArrow=none;html=1;strokeWidth=1;rounded=0;exitX=0.5;exitY=1;exitDx=0;exitDy=0;entryX=0.5;entryY=1;entryDx=0;entryDy=0;strokeColor=#000000;dashed=1;" parent="g4PYNpOqLdrN4MoXZKpE-70" source="g4PYNpOqLdrN4MoXZKpE-72" target="g4PYNpOqLdrN4MoXZKpE-71" edge="1">
          <mxGeometry width="50" height="50" relative="1" as="geometry">
            <mxPoint x="31" y="30" as="sourcePoint" />
            <mxPoint x="50" y="30" as="targetPoint" />
          </mxGeometry>
        </mxCell>
        <mxCell id="g4PYNpOqLdrN4MoXZKpE-75" value="" style="endArrow=none;html=1;strokeWidth=1;rounded=0;exitX=0;exitY=0.5;exitDx=0;exitDy=0;strokeColor=#000000;dashed=1;" parent="g4PYNpOqLdrN4MoXZKpE-70" source="g4PYNpOqLdrN4MoXZKpE-71" edge="1">
          <mxGeometry width="50" height="50" relative="1" as="geometry">
            <mxPoint x="41" y="40" as="sourcePoint" />
            <mxPoint x="20" y="20" as="targetPoint" />
          </mxGeometry>
        </mxCell>
        <mxCell id="g4PYNpOqLdrN4MoXZKpE-76" value="" style="endArrow=none;html=1;strokeWidth=1;rounded=0;exitX=0.5;exitY=0;exitDx=0;exitDy=0;strokeColor=#000000;dashed=1;" parent="g4PYNpOqLdrN4MoXZKpE-70" source="g4PYNpOqLdrN4MoXZKpE-71" edge="1">
          <mxGeometry width="50" height="50" relative="1" as="geometry">
            <mxPoint x="51" y="50" as="sourcePoint" />
            <mxPoint x="20" y="20" as="targetPoint" />
          </mxGeometry>
        </mxCell>
        <mxCell id="g4PYNpOqLdrN4MoXZKpE-77" value="" style="group" parent="1" vertex="1" connectable="0">
          <mxGeometry x="160" y="-960" width="40" height="40" as="geometry" />
        </mxCell>
        <mxCell id="g4PYNpOqLdrN4MoXZKpE-78" value="" style="whiteSpace=wrap;html=1;aspect=fixed;" parent="g4PYNpOqLdrN4MoXZKpE-77" vertex="1">
          <mxGeometry width="40" height="40" as="geometry" />
        </mxCell>
        <mxCell id="g4PYNpOqLdrN4MoXZKpE-79" value="" style="ellipse;whiteSpace=wrap;html=1;aspect=fixed;strokeColor=default;fillColor=#000000;strokeWidth=1;" parent="g4PYNpOqLdrN4MoXZKpE-77" vertex="1">
          <mxGeometry x="17.5" y="17.5" width="5" height="5" as="geometry" />
        </mxCell>
        <mxCell id="g4PYNpOqLdrN4MoXZKpE-80" value="" style="endArrow=none;html=1;strokeWidth=1;rounded=0;exitX=0.781;exitY=0.515;exitDx=0;exitDy=0;exitPerimeter=0;entryX=0;entryY=0.5;entryDx=0;entryDy=0;strokeColor=#000000;dashed=1;" parent="g4PYNpOqLdrN4MoXZKpE-77" source="g4PYNpOqLdrN4MoXZKpE-79" edge="1">
          <mxGeometry width="50" height="50" relative="1" as="geometry">
            <mxPoint x="60" y="90" as="sourcePoint" />
            <mxPoint x="40" y="20" as="targetPoint" />
          </mxGeometry>
        </mxCell>
        <mxCell id="g4PYNpOqLdrN4MoXZKpE-81" value="" style="endArrow=none;html=1;strokeWidth=1;rounded=0;exitX=0.5;exitY=1;exitDx=0;exitDy=0;entryX=0.5;entryY=1;entryDx=0;entryDy=0;strokeColor=#000000;dashed=1;" parent="g4PYNpOqLdrN4MoXZKpE-77" source="g4PYNpOqLdrN4MoXZKpE-79" target="g4PYNpOqLdrN4MoXZKpE-78" edge="1">
          <mxGeometry width="50" height="50" relative="1" as="geometry">
            <mxPoint x="31" y="30" as="sourcePoint" />
            <mxPoint x="50" y="30" as="targetPoint" />
          </mxGeometry>
        </mxCell>
        <mxCell id="g4PYNpOqLdrN4MoXZKpE-82" value="" style="endArrow=none;html=1;strokeWidth=1;rounded=0;exitX=0;exitY=0.5;exitDx=0;exitDy=0;strokeColor=#000000;dashed=1;" parent="g4PYNpOqLdrN4MoXZKpE-77" source="g4PYNpOqLdrN4MoXZKpE-78" edge="1">
          <mxGeometry width="50" height="50" relative="1" as="geometry">
            <mxPoint x="41" y="40" as="sourcePoint" />
            <mxPoint x="20" y="20" as="targetPoint" />
          </mxGeometry>
        </mxCell>
        <mxCell id="g4PYNpOqLdrN4MoXZKpE-83" value="" style="endArrow=none;html=1;strokeWidth=1;rounded=0;exitX=0.5;exitY=0;exitDx=0;exitDy=0;strokeColor=#000000;dashed=1;" parent="g4PYNpOqLdrN4MoXZKpE-77" source="g4PYNpOqLdrN4MoXZKpE-78" edge="1">
          <mxGeometry width="50" height="50" relative="1" as="geometry">
            <mxPoint x="51" y="50" as="sourcePoint" />
            <mxPoint x="20" y="20" as="targetPoint" />
          </mxGeometry>
        </mxCell>
        <mxCell id="g4PYNpOqLdrN4MoXZKpE-84" value="" style="group" parent="1" vertex="1" connectable="0">
          <mxGeometry x="200" y="-960" width="40" height="40" as="geometry" />
        </mxCell>
        <mxCell id="g4PYNpOqLdrN4MoXZKpE-85" value="" style="whiteSpace=wrap;html=1;aspect=fixed;" parent="g4PYNpOqLdrN4MoXZKpE-84" vertex="1">
          <mxGeometry width="40" height="40" as="geometry" />
        </mxCell>
        <mxCell id="g4PYNpOqLdrN4MoXZKpE-86" value="" style="ellipse;whiteSpace=wrap;html=1;aspect=fixed;strokeColor=default;fillColor=#000000;strokeWidth=1;" parent="g4PYNpOqLdrN4MoXZKpE-84" vertex="1">
          <mxGeometry x="17.5" y="17.5" width="5" height="5" as="geometry" />
        </mxCell>
        <mxCell id="g4PYNpOqLdrN4MoXZKpE-87" value="" style="endArrow=none;html=1;strokeWidth=1;rounded=0;exitX=0.781;exitY=0.515;exitDx=0;exitDy=0;exitPerimeter=0;entryX=0;entryY=0.5;entryDx=0;entryDy=0;strokeColor=#000000;dashed=1;" parent="g4PYNpOqLdrN4MoXZKpE-84" source="g4PYNpOqLdrN4MoXZKpE-86" edge="1">
          <mxGeometry width="50" height="50" relative="1" as="geometry">
            <mxPoint x="60" y="90" as="sourcePoint" />
            <mxPoint x="40" y="20" as="targetPoint" />
          </mxGeometry>
        </mxCell>
        <mxCell id="g4PYNpOqLdrN4MoXZKpE-88" value="" style="endArrow=none;html=1;strokeWidth=1;rounded=0;exitX=0.5;exitY=1;exitDx=0;exitDy=0;entryX=0.5;entryY=1;entryDx=0;entryDy=0;strokeColor=#000000;dashed=1;" parent="g4PYNpOqLdrN4MoXZKpE-84" source="g4PYNpOqLdrN4MoXZKpE-86" target="g4PYNpOqLdrN4MoXZKpE-85" edge="1">
          <mxGeometry width="50" height="50" relative="1" as="geometry">
            <mxPoint x="31" y="30" as="sourcePoint" />
            <mxPoint x="50" y="30" as="targetPoint" />
          </mxGeometry>
        </mxCell>
        <mxCell id="g4PYNpOqLdrN4MoXZKpE-89" value="" style="endArrow=none;html=1;strokeWidth=1;rounded=0;exitX=0;exitY=0.5;exitDx=0;exitDy=0;strokeColor=#000000;dashed=1;" parent="g4PYNpOqLdrN4MoXZKpE-84" source="g4PYNpOqLdrN4MoXZKpE-85" edge="1">
          <mxGeometry width="50" height="50" relative="1" as="geometry">
            <mxPoint x="41" y="40" as="sourcePoint" />
            <mxPoint x="20" y="20" as="targetPoint" />
          </mxGeometry>
        </mxCell>
        <mxCell id="g4PYNpOqLdrN4MoXZKpE-90" value="" style="endArrow=none;html=1;strokeWidth=1;rounded=0;exitX=0.5;exitY=0;exitDx=0;exitDy=0;strokeColor=#000000;dashed=1;" parent="g4PYNpOqLdrN4MoXZKpE-84" source="g4PYNpOqLdrN4MoXZKpE-85" edge="1">
          <mxGeometry width="50" height="50" relative="1" as="geometry">
            <mxPoint x="51" y="50" as="sourcePoint" />
            <mxPoint x="20" y="20" as="targetPoint" />
          </mxGeometry>
        </mxCell>
        <mxCell id="g4PYNpOqLdrN4MoXZKpE-91" value="" style="group" parent="1" vertex="1" connectable="0">
          <mxGeometry x="160" y="-920" width="40" height="40" as="geometry" />
        </mxCell>
        <mxCell id="g4PYNpOqLdrN4MoXZKpE-92" value="" style="whiteSpace=wrap;html=1;aspect=fixed;" parent="g4PYNpOqLdrN4MoXZKpE-91" vertex="1">
          <mxGeometry width="40" height="40" as="geometry" />
        </mxCell>
        <mxCell id="g4PYNpOqLdrN4MoXZKpE-93" value="" style="ellipse;whiteSpace=wrap;html=1;aspect=fixed;strokeColor=default;fillColor=#000000;strokeWidth=1;" parent="g4PYNpOqLdrN4MoXZKpE-91" vertex="1">
          <mxGeometry x="17.5" y="17.5" width="5" height="5" as="geometry" />
        </mxCell>
        <mxCell id="g4PYNpOqLdrN4MoXZKpE-94" value="" style="endArrow=none;html=1;strokeWidth=1;rounded=0;exitX=0.781;exitY=0.515;exitDx=0;exitDy=0;exitPerimeter=0;entryX=0;entryY=0.5;entryDx=0;entryDy=0;strokeColor=#000000;dashed=1;" parent="g4PYNpOqLdrN4MoXZKpE-91" source="g4PYNpOqLdrN4MoXZKpE-93" edge="1">
          <mxGeometry width="50" height="50" relative="1" as="geometry">
            <mxPoint x="60" y="90" as="sourcePoint" />
            <mxPoint x="40" y="20" as="targetPoint" />
          </mxGeometry>
        </mxCell>
        <mxCell id="g4PYNpOqLdrN4MoXZKpE-95" value="" style="endArrow=none;html=1;strokeWidth=1;rounded=0;exitX=0.5;exitY=1;exitDx=0;exitDy=0;entryX=0.5;entryY=1;entryDx=0;entryDy=0;strokeColor=#000000;dashed=1;" parent="g4PYNpOqLdrN4MoXZKpE-91" source="g4PYNpOqLdrN4MoXZKpE-93" target="g4PYNpOqLdrN4MoXZKpE-92" edge="1">
          <mxGeometry width="50" height="50" relative="1" as="geometry">
            <mxPoint x="31" y="30" as="sourcePoint" />
            <mxPoint x="50" y="30" as="targetPoint" />
          </mxGeometry>
        </mxCell>
        <mxCell id="g4PYNpOqLdrN4MoXZKpE-96" value="" style="endArrow=none;html=1;strokeWidth=1;rounded=0;exitX=0;exitY=0.5;exitDx=0;exitDy=0;strokeColor=#000000;dashed=1;" parent="g4PYNpOqLdrN4MoXZKpE-91" source="g4PYNpOqLdrN4MoXZKpE-92" edge="1">
          <mxGeometry width="50" height="50" relative="1" as="geometry">
            <mxPoint x="41" y="40" as="sourcePoint" />
            <mxPoint x="20" y="20" as="targetPoint" />
          </mxGeometry>
        </mxCell>
        <mxCell id="g4PYNpOqLdrN4MoXZKpE-97" value="" style="endArrow=none;html=1;strokeWidth=1;rounded=0;exitX=0.5;exitY=0;exitDx=0;exitDy=0;strokeColor=#000000;dashed=1;" parent="g4PYNpOqLdrN4MoXZKpE-91" source="g4PYNpOqLdrN4MoXZKpE-92" edge="1">
          <mxGeometry width="50" height="50" relative="1" as="geometry">
            <mxPoint x="51" y="50" as="sourcePoint" />
            <mxPoint x="20" y="20" as="targetPoint" />
          </mxGeometry>
        </mxCell>
        <mxCell id="g4PYNpOqLdrN4MoXZKpE-98" value="" style="group" parent="1" vertex="1" connectable="0">
          <mxGeometry x="200" y="-920" width="40" height="40" as="geometry" />
        </mxCell>
        <mxCell id="g4PYNpOqLdrN4MoXZKpE-99" value="" style="whiteSpace=wrap;html=1;aspect=fixed;" parent="g4PYNpOqLdrN4MoXZKpE-98" vertex="1">
          <mxGeometry width="40" height="40" as="geometry" />
        </mxCell>
        <mxCell id="g4PYNpOqLdrN4MoXZKpE-100" value="" style="ellipse;whiteSpace=wrap;html=1;aspect=fixed;strokeColor=default;fillColor=#000000;strokeWidth=1;" parent="g4PYNpOqLdrN4MoXZKpE-98" vertex="1">
          <mxGeometry x="17.5" y="17.5" width="5" height="5" as="geometry" />
        </mxCell>
        <mxCell id="g4PYNpOqLdrN4MoXZKpE-101" value="" style="endArrow=none;html=1;strokeWidth=1;rounded=0;exitX=0.781;exitY=0.515;exitDx=0;exitDy=0;exitPerimeter=0;entryX=0;entryY=0.5;entryDx=0;entryDy=0;strokeColor=#000000;dashed=1;" parent="g4PYNpOqLdrN4MoXZKpE-98" source="g4PYNpOqLdrN4MoXZKpE-100" edge="1">
          <mxGeometry width="50" height="50" relative="1" as="geometry">
            <mxPoint x="60" y="90" as="sourcePoint" />
            <mxPoint x="40" y="20" as="targetPoint" />
          </mxGeometry>
        </mxCell>
        <mxCell id="g4PYNpOqLdrN4MoXZKpE-102" value="" style="endArrow=none;html=1;strokeWidth=1;rounded=0;exitX=0.5;exitY=1;exitDx=0;exitDy=0;entryX=0.5;entryY=1;entryDx=0;entryDy=0;strokeColor=#000000;dashed=1;" parent="g4PYNpOqLdrN4MoXZKpE-98" source="g4PYNpOqLdrN4MoXZKpE-100" target="g4PYNpOqLdrN4MoXZKpE-99" edge="1">
          <mxGeometry width="50" height="50" relative="1" as="geometry">
            <mxPoint x="31" y="30" as="sourcePoint" />
            <mxPoint x="50" y="30" as="targetPoint" />
          </mxGeometry>
        </mxCell>
        <mxCell id="g4PYNpOqLdrN4MoXZKpE-103" value="" style="endArrow=none;html=1;strokeWidth=1;rounded=0;exitX=0;exitY=0.5;exitDx=0;exitDy=0;strokeColor=#000000;dashed=1;" parent="g4PYNpOqLdrN4MoXZKpE-98" source="g4PYNpOqLdrN4MoXZKpE-99" edge="1">
          <mxGeometry width="50" height="50" relative="1" as="geometry">
            <mxPoint x="41" y="40" as="sourcePoint" />
            <mxPoint x="20" y="20" as="targetPoint" />
          </mxGeometry>
        </mxCell>
        <mxCell id="g4PYNpOqLdrN4MoXZKpE-104" value="" style="endArrow=none;html=1;strokeWidth=1;rounded=0;exitX=0.5;exitY=0;exitDx=0;exitDy=0;strokeColor=#000000;dashed=1;" parent="g4PYNpOqLdrN4MoXZKpE-98" source="g4PYNpOqLdrN4MoXZKpE-99" edge="1">
          <mxGeometry width="50" height="50" relative="1" as="geometry">
            <mxPoint x="51" y="50" as="sourcePoint" />
            <mxPoint x="20" y="20" as="targetPoint" />
          </mxGeometry>
        </mxCell>
        <mxCell id="g4PYNpOqLdrN4MoXZKpE-105" value="" style="group" parent="1" vertex="1" connectable="0">
          <mxGeometry x="80" y="-880" width="40" height="40" as="geometry" />
        </mxCell>
        <mxCell id="g4PYNpOqLdrN4MoXZKpE-106" value="" style="whiteSpace=wrap;html=1;aspect=fixed;" parent="g4PYNpOqLdrN4MoXZKpE-105" vertex="1">
          <mxGeometry width="40" height="40" as="geometry" />
        </mxCell>
        <mxCell id="g4PYNpOqLdrN4MoXZKpE-107" value="" style="ellipse;whiteSpace=wrap;html=1;aspect=fixed;strokeColor=default;fillColor=#000000;strokeWidth=1;" parent="g4PYNpOqLdrN4MoXZKpE-105" vertex="1">
          <mxGeometry x="17.5" y="17.5" width="5" height="5" as="geometry" />
        </mxCell>
        <mxCell id="g4PYNpOqLdrN4MoXZKpE-108" value="" style="endArrow=none;html=1;strokeWidth=1;rounded=0;exitX=0.781;exitY=0.515;exitDx=0;exitDy=0;exitPerimeter=0;entryX=0;entryY=0.5;entryDx=0;entryDy=0;strokeColor=#000000;dashed=1;" parent="g4PYNpOqLdrN4MoXZKpE-105" source="g4PYNpOqLdrN4MoXZKpE-107" edge="1">
          <mxGeometry width="50" height="50" relative="1" as="geometry">
            <mxPoint x="60" y="90" as="sourcePoint" />
            <mxPoint x="40" y="20" as="targetPoint" />
          </mxGeometry>
        </mxCell>
        <mxCell id="g4PYNpOqLdrN4MoXZKpE-109" value="" style="endArrow=none;html=1;strokeWidth=1;rounded=0;exitX=0.5;exitY=1;exitDx=0;exitDy=0;entryX=0.5;entryY=1;entryDx=0;entryDy=0;strokeColor=#000000;dashed=1;" parent="g4PYNpOqLdrN4MoXZKpE-105" source="g4PYNpOqLdrN4MoXZKpE-107" target="g4PYNpOqLdrN4MoXZKpE-106" edge="1">
          <mxGeometry width="50" height="50" relative="1" as="geometry">
            <mxPoint x="31" y="30" as="sourcePoint" />
            <mxPoint x="50" y="30" as="targetPoint" />
          </mxGeometry>
        </mxCell>
        <mxCell id="g4PYNpOqLdrN4MoXZKpE-110" value="" style="endArrow=none;html=1;strokeWidth=1;rounded=0;exitX=0;exitY=0.5;exitDx=0;exitDy=0;strokeColor=#000000;dashed=1;" parent="g4PYNpOqLdrN4MoXZKpE-105" source="g4PYNpOqLdrN4MoXZKpE-106" edge="1">
          <mxGeometry width="50" height="50" relative="1" as="geometry">
            <mxPoint x="41" y="40" as="sourcePoint" />
            <mxPoint x="20" y="20" as="targetPoint" />
          </mxGeometry>
        </mxCell>
        <mxCell id="g4PYNpOqLdrN4MoXZKpE-111" value="" style="endArrow=none;html=1;strokeWidth=1;rounded=0;exitX=0.5;exitY=0;exitDx=0;exitDy=0;strokeColor=#000000;dashed=1;" parent="g4PYNpOqLdrN4MoXZKpE-105" source="g4PYNpOqLdrN4MoXZKpE-106" edge="1">
          <mxGeometry width="50" height="50" relative="1" as="geometry">
            <mxPoint x="51" y="50" as="sourcePoint" />
            <mxPoint x="20" y="20" as="targetPoint" />
          </mxGeometry>
        </mxCell>
        <mxCell id="g4PYNpOqLdrN4MoXZKpE-112" value="" style="group" parent="1" vertex="1" connectable="0">
          <mxGeometry x="120" y="-880" width="40" height="40" as="geometry" />
        </mxCell>
        <mxCell id="g4PYNpOqLdrN4MoXZKpE-113" value="" style="whiteSpace=wrap;html=1;aspect=fixed;" parent="g4PYNpOqLdrN4MoXZKpE-112" vertex="1">
          <mxGeometry width="40" height="40" as="geometry" />
        </mxCell>
        <mxCell id="g4PYNpOqLdrN4MoXZKpE-114" value="" style="ellipse;whiteSpace=wrap;html=1;aspect=fixed;strokeColor=default;fillColor=#000000;strokeWidth=1;" parent="g4PYNpOqLdrN4MoXZKpE-112" vertex="1">
          <mxGeometry x="17.5" y="17.5" width="5" height="5" as="geometry" />
        </mxCell>
        <mxCell id="g4PYNpOqLdrN4MoXZKpE-115" value="" style="endArrow=none;html=1;strokeWidth=1;rounded=0;exitX=0.781;exitY=0.515;exitDx=0;exitDy=0;exitPerimeter=0;entryX=0;entryY=0.5;entryDx=0;entryDy=0;strokeColor=#000000;dashed=1;" parent="g4PYNpOqLdrN4MoXZKpE-112" source="g4PYNpOqLdrN4MoXZKpE-114" edge="1">
          <mxGeometry width="50" height="50" relative="1" as="geometry">
            <mxPoint x="60" y="90" as="sourcePoint" />
            <mxPoint x="40" y="20" as="targetPoint" />
          </mxGeometry>
        </mxCell>
        <mxCell id="g4PYNpOqLdrN4MoXZKpE-116" value="" style="endArrow=none;html=1;strokeWidth=1;rounded=0;exitX=0.5;exitY=1;exitDx=0;exitDy=0;entryX=0.5;entryY=1;entryDx=0;entryDy=0;strokeColor=#000000;dashed=1;" parent="g4PYNpOqLdrN4MoXZKpE-112" source="g4PYNpOqLdrN4MoXZKpE-114" target="g4PYNpOqLdrN4MoXZKpE-113" edge="1">
          <mxGeometry width="50" height="50" relative="1" as="geometry">
            <mxPoint x="31" y="30" as="sourcePoint" />
            <mxPoint x="50" y="30" as="targetPoint" />
          </mxGeometry>
        </mxCell>
        <mxCell id="g4PYNpOqLdrN4MoXZKpE-117" value="" style="endArrow=none;html=1;strokeWidth=1;rounded=0;exitX=0;exitY=0.5;exitDx=0;exitDy=0;strokeColor=#000000;dashed=1;" parent="g4PYNpOqLdrN4MoXZKpE-112" source="g4PYNpOqLdrN4MoXZKpE-113" edge="1">
          <mxGeometry width="50" height="50" relative="1" as="geometry">
            <mxPoint x="41" y="40" as="sourcePoint" />
            <mxPoint x="20" y="20" as="targetPoint" />
          </mxGeometry>
        </mxCell>
        <mxCell id="g4PYNpOqLdrN4MoXZKpE-118" value="" style="endArrow=none;html=1;strokeWidth=1;rounded=0;exitX=0.5;exitY=0;exitDx=0;exitDy=0;strokeColor=#000000;dashed=1;" parent="g4PYNpOqLdrN4MoXZKpE-112" source="g4PYNpOqLdrN4MoXZKpE-113" edge="1">
          <mxGeometry width="50" height="50" relative="1" as="geometry">
            <mxPoint x="51" y="50" as="sourcePoint" />
            <mxPoint x="20" y="20" as="targetPoint" />
          </mxGeometry>
        </mxCell>
        <mxCell id="g4PYNpOqLdrN4MoXZKpE-119" value="" style="group" parent="1" vertex="1" connectable="0">
          <mxGeometry x="80" y="-840" width="40" height="40" as="geometry" />
        </mxCell>
        <mxCell id="g4PYNpOqLdrN4MoXZKpE-120" value="" style="whiteSpace=wrap;html=1;aspect=fixed;" parent="g4PYNpOqLdrN4MoXZKpE-119" vertex="1">
          <mxGeometry width="40" height="40" as="geometry" />
        </mxCell>
        <mxCell id="g4PYNpOqLdrN4MoXZKpE-121" value="" style="ellipse;whiteSpace=wrap;html=1;aspect=fixed;strokeColor=default;fillColor=#000000;strokeWidth=1;" parent="g4PYNpOqLdrN4MoXZKpE-119" vertex="1">
          <mxGeometry x="17.5" y="17.5" width="5" height="5" as="geometry" />
        </mxCell>
        <mxCell id="g4PYNpOqLdrN4MoXZKpE-122" value="" style="endArrow=none;html=1;strokeWidth=1;rounded=0;exitX=0.781;exitY=0.515;exitDx=0;exitDy=0;exitPerimeter=0;entryX=0;entryY=0.5;entryDx=0;entryDy=0;strokeColor=#000000;dashed=1;" parent="g4PYNpOqLdrN4MoXZKpE-119" source="g4PYNpOqLdrN4MoXZKpE-121" edge="1">
          <mxGeometry width="50" height="50" relative="1" as="geometry">
            <mxPoint x="60" y="90" as="sourcePoint" />
            <mxPoint x="40" y="20" as="targetPoint" />
          </mxGeometry>
        </mxCell>
        <mxCell id="g4PYNpOqLdrN4MoXZKpE-123" value="" style="endArrow=none;html=1;strokeWidth=1;rounded=0;exitX=0.5;exitY=1;exitDx=0;exitDy=0;entryX=0.5;entryY=1;entryDx=0;entryDy=0;strokeColor=#000000;dashed=1;" parent="g4PYNpOqLdrN4MoXZKpE-119" source="g4PYNpOqLdrN4MoXZKpE-121" target="g4PYNpOqLdrN4MoXZKpE-120" edge="1">
          <mxGeometry width="50" height="50" relative="1" as="geometry">
            <mxPoint x="31" y="30" as="sourcePoint" />
            <mxPoint x="50" y="30" as="targetPoint" />
          </mxGeometry>
        </mxCell>
        <mxCell id="g4PYNpOqLdrN4MoXZKpE-124" value="" style="endArrow=none;html=1;strokeWidth=1;rounded=0;exitX=0;exitY=0.5;exitDx=0;exitDy=0;strokeColor=#000000;dashed=1;" parent="g4PYNpOqLdrN4MoXZKpE-119" source="g4PYNpOqLdrN4MoXZKpE-120" edge="1">
          <mxGeometry width="50" height="50" relative="1" as="geometry">
            <mxPoint x="41" y="40" as="sourcePoint" />
            <mxPoint x="20" y="20" as="targetPoint" />
          </mxGeometry>
        </mxCell>
        <mxCell id="g4PYNpOqLdrN4MoXZKpE-125" value="" style="endArrow=none;html=1;strokeWidth=1;rounded=0;exitX=0.5;exitY=0;exitDx=0;exitDy=0;strokeColor=#000000;dashed=1;" parent="g4PYNpOqLdrN4MoXZKpE-119" source="g4PYNpOqLdrN4MoXZKpE-120" edge="1">
          <mxGeometry width="50" height="50" relative="1" as="geometry">
            <mxPoint x="51" y="50" as="sourcePoint" />
            <mxPoint x="20" y="20" as="targetPoint" />
          </mxGeometry>
        </mxCell>
        <mxCell id="g4PYNpOqLdrN4MoXZKpE-126" value="" style="group" parent="1" vertex="1" connectable="0">
          <mxGeometry x="120" y="-840" width="40" height="40" as="geometry" />
        </mxCell>
        <mxCell id="g4PYNpOqLdrN4MoXZKpE-127" value="" style="whiteSpace=wrap;html=1;aspect=fixed;" parent="g4PYNpOqLdrN4MoXZKpE-126" vertex="1">
          <mxGeometry width="40" height="40" as="geometry" />
        </mxCell>
        <mxCell id="g4PYNpOqLdrN4MoXZKpE-128" value="" style="ellipse;whiteSpace=wrap;html=1;aspect=fixed;strokeColor=default;fillColor=#000000;strokeWidth=1;" parent="g4PYNpOqLdrN4MoXZKpE-126" vertex="1">
          <mxGeometry x="17.5" y="17.5" width="5" height="5" as="geometry" />
        </mxCell>
        <mxCell id="g4PYNpOqLdrN4MoXZKpE-129" value="" style="endArrow=none;html=1;strokeWidth=1;rounded=0;exitX=0.781;exitY=0.515;exitDx=0;exitDy=0;exitPerimeter=0;entryX=0;entryY=0.5;entryDx=0;entryDy=0;strokeColor=#000000;dashed=1;" parent="g4PYNpOqLdrN4MoXZKpE-126" source="g4PYNpOqLdrN4MoXZKpE-128" edge="1">
          <mxGeometry width="50" height="50" relative="1" as="geometry">
            <mxPoint x="60" y="90" as="sourcePoint" />
            <mxPoint x="40" y="20" as="targetPoint" />
          </mxGeometry>
        </mxCell>
        <mxCell id="g4PYNpOqLdrN4MoXZKpE-130" value="" style="endArrow=none;html=1;strokeWidth=1;rounded=0;exitX=0.5;exitY=1;exitDx=0;exitDy=0;entryX=0.5;entryY=1;entryDx=0;entryDy=0;strokeColor=#000000;dashed=1;" parent="g4PYNpOqLdrN4MoXZKpE-126" source="g4PYNpOqLdrN4MoXZKpE-128" target="g4PYNpOqLdrN4MoXZKpE-127" edge="1">
          <mxGeometry width="50" height="50" relative="1" as="geometry">
            <mxPoint x="31" y="30" as="sourcePoint" />
            <mxPoint x="50" y="30" as="targetPoint" />
          </mxGeometry>
        </mxCell>
        <mxCell id="g4PYNpOqLdrN4MoXZKpE-131" value="" style="endArrow=none;html=1;strokeWidth=1;rounded=0;exitX=0;exitY=0.5;exitDx=0;exitDy=0;strokeColor=#000000;dashed=1;" parent="g4PYNpOqLdrN4MoXZKpE-126" source="g4PYNpOqLdrN4MoXZKpE-127" edge="1">
          <mxGeometry width="50" height="50" relative="1" as="geometry">
            <mxPoint x="41" y="40" as="sourcePoint" />
            <mxPoint x="20" y="20" as="targetPoint" />
          </mxGeometry>
        </mxCell>
        <mxCell id="g4PYNpOqLdrN4MoXZKpE-132" value="" style="endArrow=none;html=1;strokeWidth=1;rounded=0;exitX=0.5;exitY=0;exitDx=0;exitDy=0;strokeColor=#000000;dashed=1;" parent="g4PYNpOqLdrN4MoXZKpE-126" source="g4PYNpOqLdrN4MoXZKpE-127" edge="1">
          <mxGeometry width="50" height="50" relative="1" as="geometry">
            <mxPoint x="51" y="50" as="sourcePoint" />
            <mxPoint x="20" y="20" as="targetPoint" />
          </mxGeometry>
        </mxCell>
        <mxCell id="g4PYNpOqLdrN4MoXZKpE-133" value="" style="group" parent="1" vertex="1" connectable="0">
          <mxGeometry x="160" y="-880" width="40" height="40" as="geometry" />
        </mxCell>
        <mxCell id="g4PYNpOqLdrN4MoXZKpE-134" value="" style="whiteSpace=wrap;html=1;aspect=fixed;" parent="g4PYNpOqLdrN4MoXZKpE-133" vertex="1">
          <mxGeometry width="40" height="40" as="geometry" />
        </mxCell>
        <mxCell id="g4PYNpOqLdrN4MoXZKpE-135" value="" style="ellipse;whiteSpace=wrap;html=1;aspect=fixed;strokeColor=default;fillColor=#000000;strokeWidth=1;" parent="g4PYNpOqLdrN4MoXZKpE-133" vertex="1">
          <mxGeometry x="17.5" y="17.5" width="5" height="5" as="geometry" />
        </mxCell>
        <mxCell id="g4PYNpOqLdrN4MoXZKpE-136" value="" style="endArrow=none;html=1;strokeWidth=1;rounded=0;exitX=0.781;exitY=0.515;exitDx=0;exitDy=0;exitPerimeter=0;entryX=0;entryY=0.5;entryDx=0;entryDy=0;strokeColor=#000000;dashed=1;" parent="g4PYNpOqLdrN4MoXZKpE-133" source="g4PYNpOqLdrN4MoXZKpE-135" edge="1">
          <mxGeometry width="50" height="50" relative="1" as="geometry">
            <mxPoint x="60" y="90" as="sourcePoint" />
            <mxPoint x="40" y="20" as="targetPoint" />
          </mxGeometry>
        </mxCell>
        <mxCell id="g4PYNpOqLdrN4MoXZKpE-137" value="" style="endArrow=none;html=1;strokeWidth=1;rounded=0;exitX=0.5;exitY=1;exitDx=0;exitDy=0;entryX=0.5;entryY=1;entryDx=0;entryDy=0;strokeColor=#000000;dashed=1;" parent="g4PYNpOqLdrN4MoXZKpE-133" source="g4PYNpOqLdrN4MoXZKpE-135" target="g4PYNpOqLdrN4MoXZKpE-134" edge="1">
          <mxGeometry width="50" height="50" relative="1" as="geometry">
            <mxPoint x="31" y="30" as="sourcePoint" />
            <mxPoint x="50" y="30" as="targetPoint" />
          </mxGeometry>
        </mxCell>
        <mxCell id="g4PYNpOqLdrN4MoXZKpE-138" value="" style="endArrow=none;html=1;strokeWidth=1;rounded=0;exitX=0;exitY=0.5;exitDx=0;exitDy=0;strokeColor=#000000;dashed=1;" parent="g4PYNpOqLdrN4MoXZKpE-133" source="g4PYNpOqLdrN4MoXZKpE-134" edge="1">
          <mxGeometry width="50" height="50" relative="1" as="geometry">
            <mxPoint x="41" y="40" as="sourcePoint" />
            <mxPoint x="20" y="20" as="targetPoint" />
          </mxGeometry>
        </mxCell>
        <mxCell id="g4PYNpOqLdrN4MoXZKpE-139" value="" style="endArrow=none;html=1;strokeWidth=1;rounded=0;exitX=0.5;exitY=0;exitDx=0;exitDy=0;strokeColor=#000000;dashed=1;" parent="g4PYNpOqLdrN4MoXZKpE-133" source="g4PYNpOqLdrN4MoXZKpE-134" edge="1">
          <mxGeometry width="50" height="50" relative="1" as="geometry">
            <mxPoint x="51" y="50" as="sourcePoint" />
            <mxPoint x="20" y="20" as="targetPoint" />
          </mxGeometry>
        </mxCell>
        <mxCell id="g4PYNpOqLdrN4MoXZKpE-140" value="" style="group" parent="1" vertex="1" connectable="0">
          <mxGeometry x="200" y="-880" width="40" height="40" as="geometry" />
        </mxCell>
        <mxCell id="g4PYNpOqLdrN4MoXZKpE-141" value="" style="whiteSpace=wrap;html=1;aspect=fixed;" parent="g4PYNpOqLdrN4MoXZKpE-140" vertex="1">
          <mxGeometry width="40" height="40" as="geometry" />
        </mxCell>
        <mxCell id="g4PYNpOqLdrN4MoXZKpE-142" value="" style="ellipse;whiteSpace=wrap;html=1;aspect=fixed;strokeColor=default;fillColor=#000000;strokeWidth=1;" parent="g4PYNpOqLdrN4MoXZKpE-140" vertex="1">
          <mxGeometry x="17.5" y="17.5" width="5" height="5" as="geometry" />
        </mxCell>
        <mxCell id="g4PYNpOqLdrN4MoXZKpE-143" value="" style="endArrow=none;html=1;strokeWidth=1;rounded=0;exitX=0.781;exitY=0.515;exitDx=0;exitDy=0;exitPerimeter=0;entryX=0;entryY=0.5;entryDx=0;entryDy=0;strokeColor=#000000;dashed=1;" parent="g4PYNpOqLdrN4MoXZKpE-140" source="g4PYNpOqLdrN4MoXZKpE-142" edge="1">
          <mxGeometry width="50" height="50" relative="1" as="geometry">
            <mxPoint x="60" y="90" as="sourcePoint" />
            <mxPoint x="40" y="20" as="targetPoint" />
          </mxGeometry>
        </mxCell>
        <mxCell id="g4PYNpOqLdrN4MoXZKpE-144" value="" style="endArrow=none;html=1;strokeWidth=1;rounded=0;exitX=0.5;exitY=1;exitDx=0;exitDy=0;entryX=0.5;entryY=1;entryDx=0;entryDy=0;strokeColor=#000000;dashed=1;" parent="g4PYNpOqLdrN4MoXZKpE-140" source="g4PYNpOqLdrN4MoXZKpE-142" target="g4PYNpOqLdrN4MoXZKpE-141" edge="1">
          <mxGeometry width="50" height="50" relative="1" as="geometry">
            <mxPoint x="31" y="30" as="sourcePoint" />
            <mxPoint x="50" y="30" as="targetPoint" />
          </mxGeometry>
        </mxCell>
        <mxCell id="g4PYNpOqLdrN4MoXZKpE-145" value="" style="endArrow=none;html=1;strokeWidth=1;rounded=0;exitX=0;exitY=0.5;exitDx=0;exitDy=0;strokeColor=#000000;dashed=1;" parent="g4PYNpOqLdrN4MoXZKpE-140" source="g4PYNpOqLdrN4MoXZKpE-141" edge="1">
          <mxGeometry width="50" height="50" relative="1" as="geometry">
            <mxPoint x="41" y="40" as="sourcePoint" />
            <mxPoint x="20" y="20" as="targetPoint" />
          </mxGeometry>
        </mxCell>
        <mxCell id="g4PYNpOqLdrN4MoXZKpE-146" value="" style="endArrow=none;html=1;strokeWidth=1;rounded=0;exitX=0.5;exitY=0;exitDx=0;exitDy=0;strokeColor=#000000;dashed=1;" parent="g4PYNpOqLdrN4MoXZKpE-140" source="g4PYNpOqLdrN4MoXZKpE-141" edge="1">
          <mxGeometry width="50" height="50" relative="1" as="geometry">
            <mxPoint x="51" y="50" as="sourcePoint" />
            <mxPoint x="20" y="20" as="targetPoint" />
          </mxGeometry>
        </mxCell>
        <mxCell id="g4PYNpOqLdrN4MoXZKpE-147" value="" style="group" parent="1" vertex="1" connectable="0">
          <mxGeometry x="160" y="-840" width="40" height="40" as="geometry" />
        </mxCell>
        <mxCell id="g4PYNpOqLdrN4MoXZKpE-148" value="" style="whiteSpace=wrap;html=1;aspect=fixed;" parent="g4PYNpOqLdrN4MoXZKpE-147" vertex="1">
          <mxGeometry width="40" height="40" as="geometry" />
        </mxCell>
        <mxCell id="g4PYNpOqLdrN4MoXZKpE-149" value="" style="ellipse;whiteSpace=wrap;html=1;aspect=fixed;strokeColor=default;fillColor=#000000;strokeWidth=1;" parent="g4PYNpOqLdrN4MoXZKpE-147" vertex="1">
          <mxGeometry x="17.5" y="17.5" width="5" height="5" as="geometry" />
        </mxCell>
        <mxCell id="g4PYNpOqLdrN4MoXZKpE-150" value="" style="endArrow=none;html=1;strokeWidth=1;rounded=0;exitX=0.781;exitY=0.515;exitDx=0;exitDy=0;exitPerimeter=0;entryX=0;entryY=0.5;entryDx=0;entryDy=0;strokeColor=#000000;dashed=1;" parent="g4PYNpOqLdrN4MoXZKpE-147" source="g4PYNpOqLdrN4MoXZKpE-149" edge="1">
          <mxGeometry width="50" height="50" relative="1" as="geometry">
            <mxPoint x="60" y="90" as="sourcePoint" />
            <mxPoint x="40" y="20" as="targetPoint" />
          </mxGeometry>
        </mxCell>
        <mxCell id="g4PYNpOqLdrN4MoXZKpE-151" value="" style="endArrow=none;html=1;strokeWidth=1;rounded=0;exitX=0.5;exitY=1;exitDx=0;exitDy=0;entryX=0.5;entryY=1;entryDx=0;entryDy=0;strokeColor=#000000;dashed=1;" parent="g4PYNpOqLdrN4MoXZKpE-147" source="g4PYNpOqLdrN4MoXZKpE-149" target="g4PYNpOqLdrN4MoXZKpE-148" edge="1">
          <mxGeometry width="50" height="50" relative="1" as="geometry">
            <mxPoint x="31" y="30" as="sourcePoint" />
            <mxPoint x="50" y="30" as="targetPoint" />
          </mxGeometry>
        </mxCell>
        <mxCell id="g4PYNpOqLdrN4MoXZKpE-152" value="" style="endArrow=none;html=1;strokeWidth=1;rounded=0;exitX=0;exitY=0.5;exitDx=0;exitDy=0;strokeColor=#000000;dashed=1;" parent="g4PYNpOqLdrN4MoXZKpE-147" source="g4PYNpOqLdrN4MoXZKpE-148" edge="1">
          <mxGeometry width="50" height="50" relative="1" as="geometry">
            <mxPoint x="41" y="40" as="sourcePoint" />
            <mxPoint x="20" y="20" as="targetPoint" />
          </mxGeometry>
        </mxCell>
        <mxCell id="g4PYNpOqLdrN4MoXZKpE-153" value="" style="endArrow=none;html=1;strokeWidth=1;rounded=0;exitX=0.5;exitY=0;exitDx=0;exitDy=0;strokeColor=#000000;dashed=1;" parent="g4PYNpOqLdrN4MoXZKpE-147" source="g4PYNpOqLdrN4MoXZKpE-148" edge="1">
          <mxGeometry width="50" height="50" relative="1" as="geometry">
            <mxPoint x="51" y="50" as="sourcePoint" />
            <mxPoint x="20" y="20" as="targetPoint" />
          </mxGeometry>
        </mxCell>
        <mxCell id="g4PYNpOqLdrN4MoXZKpE-154" value="" style="group" parent="1" vertex="1" connectable="0">
          <mxGeometry x="200" y="-840" width="40" height="40" as="geometry" />
        </mxCell>
        <mxCell id="g4PYNpOqLdrN4MoXZKpE-155" value="" style="whiteSpace=wrap;html=1;aspect=fixed;" parent="g4PYNpOqLdrN4MoXZKpE-154" vertex="1">
          <mxGeometry width="40" height="40" as="geometry" />
        </mxCell>
        <mxCell id="g4PYNpOqLdrN4MoXZKpE-156" value="" style="ellipse;whiteSpace=wrap;html=1;aspect=fixed;strokeColor=default;fillColor=#000000;strokeWidth=1;" parent="g4PYNpOqLdrN4MoXZKpE-154" vertex="1">
          <mxGeometry x="17.5" y="17.5" width="5" height="5" as="geometry" />
        </mxCell>
        <mxCell id="g4PYNpOqLdrN4MoXZKpE-157" value="" style="endArrow=none;html=1;strokeWidth=1;rounded=0;exitX=0.781;exitY=0.515;exitDx=0;exitDy=0;exitPerimeter=0;entryX=0;entryY=0.5;entryDx=0;entryDy=0;strokeColor=#000000;dashed=1;" parent="g4PYNpOqLdrN4MoXZKpE-154" source="g4PYNpOqLdrN4MoXZKpE-156" edge="1">
          <mxGeometry width="50" height="50" relative="1" as="geometry">
            <mxPoint x="60" y="90" as="sourcePoint" />
            <mxPoint x="40" y="20" as="targetPoint" />
          </mxGeometry>
        </mxCell>
        <mxCell id="g4PYNpOqLdrN4MoXZKpE-158" value="" style="endArrow=none;html=1;strokeWidth=1;rounded=0;exitX=0.5;exitY=1;exitDx=0;exitDy=0;entryX=0.5;entryY=1;entryDx=0;entryDy=0;strokeColor=#000000;dashed=1;" parent="g4PYNpOqLdrN4MoXZKpE-154" source="g4PYNpOqLdrN4MoXZKpE-156" target="g4PYNpOqLdrN4MoXZKpE-155" edge="1">
          <mxGeometry width="50" height="50" relative="1" as="geometry">
            <mxPoint x="31" y="30" as="sourcePoint" />
            <mxPoint x="50" y="30" as="targetPoint" />
          </mxGeometry>
        </mxCell>
        <mxCell id="g4PYNpOqLdrN4MoXZKpE-159" value="" style="endArrow=none;html=1;strokeWidth=1;rounded=0;exitX=0;exitY=0.5;exitDx=0;exitDy=0;strokeColor=#000000;dashed=1;" parent="g4PYNpOqLdrN4MoXZKpE-154" source="g4PYNpOqLdrN4MoXZKpE-155" edge="1">
          <mxGeometry width="50" height="50" relative="1" as="geometry">
            <mxPoint x="41" y="40" as="sourcePoint" />
            <mxPoint x="20" y="20" as="targetPoint" />
          </mxGeometry>
        </mxCell>
        <mxCell id="g4PYNpOqLdrN4MoXZKpE-160" value="" style="endArrow=none;html=1;strokeWidth=1;rounded=0;exitX=0.5;exitY=0;exitDx=0;exitDy=0;strokeColor=#000000;dashed=1;" parent="g4PYNpOqLdrN4MoXZKpE-154" source="g4PYNpOqLdrN4MoXZKpE-155" edge="1">
          <mxGeometry width="50" height="50" relative="1" as="geometry">
            <mxPoint x="51" y="50" as="sourcePoint" />
            <mxPoint x="20" y="20" as="targetPoint" />
          </mxGeometry>
        </mxCell>
        <mxCell id="KmVvA8LDP8XXERMTgrcq-16" value="" style="group" parent="1" vertex="1" connectable="0">
          <mxGeometry x="780" y="-970" width="20" height="133" as="geometry" />
        </mxCell>
        <mxCell id="KmVvA8LDP8XXERMTgrcq-5" style="edgeStyle=orthogonalEdgeStyle;rounded=0;orthogonalLoop=1;jettySize=auto;html=1;exitX=0;exitY=0.5;exitDx=0;exitDy=0;endArrow=none;endFill=0;" parent="KmVvA8LDP8XXERMTgrcq-16" source="QqCahTS9jlHSjSnj5ugb-8" edge="1">
          <mxGeometry relative="1" as="geometry">
            <mxPoint y="43.34214092140925" as="targetPoint" />
          </mxGeometry>
        </mxCell>
        <mxCell id="KmVvA8LDP8XXERMTgrcq-4" value="" style="endArrow=block;html=1;rounded=0;endFill=0;" parent="KmVvA8LDP8XXERMTgrcq-16" edge="1">
          <mxGeometry width="50" height="50" relative="1" as="geometry">
            <mxPoint y="129.7560975609756" as="sourcePoint" />
            <mxPoint as="targetPoint" />
          </mxGeometry>
        </mxCell>
        <mxCell id="KmVvA8LDP8XXERMTgrcq-7" style="edgeStyle=orthogonalEdgeStyle;rounded=0;orthogonalLoop=1;jettySize=auto;html=1;exitX=0;exitY=0.5;exitDx=0;exitDy=0;endArrow=none;endFill=0;" parent="KmVvA8LDP8XXERMTgrcq-16" source="QqCahTS9jlHSjSnj5ugb-9" edge="1">
          <mxGeometry relative="1" as="geometry">
            <mxPoint y="86.5040650406504" as="targetPoint" />
            <mxPoint x="30" y="54.0650406504065" as="sourcePoint" />
          </mxGeometry>
        </mxCell>
        <mxCell id="KmVvA8LDP8XXERMTgrcq-8" style="edgeStyle=orthogonalEdgeStyle;rounded=0;orthogonalLoop=1;jettySize=auto;html=1;endArrow=none;endFill=0;" parent="KmVvA8LDP8XXERMTgrcq-16" edge="1">
          <mxGeometry relative="1" as="geometry">
            <mxPoint y="129.7560975609756" as="targetPoint" />
            <mxPoint x="20" y="133" as="sourcePoint" />
          </mxGeometry>
        </mxCell>
        <mxCell id="KmVvA8LDP8XXERMTgrcq-17" value="" style="group" parent="1" vertex="1" connectable="0">
          <mxGeometry x="1500" y="-970" width="10" height="133" as="geometry" />
        </mxCell>
        <mxCell id="KmVvA8LDP8XXERMTgrcq-18" style="edgeStyle=orthogonalEdgeStyle;rounded=0;orthogonalLoop=1;jettySize=auto;html=1;exitX=0;exitY=0.5;exitDx=0;exitDy=0;endArrow=none;endFill=0;" parent="KmVvA8LDP8XXERMTgrcq-17" edge="1">
          <mxGeometry relative="1" as="geometry">
            <mxPoint y="43.34214092140925" as="targetPoint" />
          </mxGeometry>
        </mxCell>
        <mxCell id="KmVvA8LDP8XXERMTgrcq-19" value="" style="endArrow=block;html=1;rounded=0;endFill=0;" parent="KmVvA8LDP8XXERMTgrcq-17" edge="1">
          <mxGeometry width="50" height="50" relative="1" as="geometry">
            <mxPoint y="129.7560975609756" as="sourcePoint" />
            <mxPoint as="targetPoint" />
          </mxGeometry>
        </mxCell>
        <mxCell id="KmVvA8LDP8XXERMTgrcq-21" style="edgeStyle=orthogonalEdgeStyle;rounded=0;orthogonalLoop=1;jettySize=auto;html=1;endArrow=none;endFill=0;" parent="KmVvA8LDP8XXERMTgrcq-17" source="QqCahTS9jlHSjSnj5ugb-6" edge="1">
          <mxGeometry relative="1" as="geometry">
            <mxPoint y="129.7560975609756" as="targetPoint" />
            <mxPoint x="10" y="132.99999999999997" as="sourcePoint" />
          </mxGeometry>
        </mxCell>
        <mxCell id="KmVvA8LDP8XXERMTgrcq-20" style="edgeStyle=orthogonalEdgeStyle;rounded=0;orthogonalLoop=1;jettySize=auto;html=1;exitX=1;exitY=0.5;exitDx=0;exitDy=0;endArrow=none;endFill=0;entryX=1;entryY=0.5;entryDx=0;entryDy=0;" parent="1" source="QqCahTS9jlHSjSnj5ugb-3" target="QqCahTS9jlHSjSnj5ugb-5" edge="1">
          <mxGeometry relative="1" as="geometry">
            <mxPoint x="1510" y="-863" as="targetPoint" />
            <mxPoint x="1540" y="-893" as="sourcePoint" />
          </mxGeometry>
        </mxCell>
        <mxCell id="KmVvA8LDP8XXERMTgrcq-23" value="&lt;div style=&quot;text-align: center;&quot;&gt;&lt;font face=&quot;Times New Roman&quot;&gt;&lt;span style=&quot;font-size: 30px;&quot;&gt;&lt;b&gt;dataIO&lt;/b&gt;&lt;/span&gt;&lt;/font&gt;&lt;/div&gt;" style="rounded=0;whiteSpace=wrap;html=1;strokeWidth=2;" parent="1" vertex="1">
          <mxGeometry x="-215" y="620" width="217" height="80" as="geometry" />
        </mxCell>
        <mxCell id="KmVvA8LDP8XXERMTgrcq-29" style="edgeStyle=orthogonalEdgeStyle;rounded=0;orthogonalLoop=1;jettySize=auto;html=1;curved=1;strokeWidth=5;strokeColor=#FF3333;" parent="1" source="QqCahTS9jlHSjSnj5ugb-54" edge="1">
          <mxGeometry relative="1" as="geometry">
            <mxPoint x="270" y="-480" as="targetPoint" />
          </mxGeometry>
        </mxCell>
        <mxCell id="KmVvA8LDP8XXERMTgrcq-30" value="&lt;div style=&quot;text-align: center;&quot;&gt;&lt;span style=&quot;font-size: 30px;&quot;&gt;&lt;b style=&quot;&quot;&gt;&lt;font face=&quot;宋体&quot;&gt;核心算法库&lt;/font&gt;&lt;/b&gt;&lt;/span&gt;&lt;/div&gt;" style="rounded=0;whiteSpace=wrap;html=1;strokeWidth=2;" parent="1" vertex="1">
          <mxGeometry x="-1630" y="-927" width="281.5" height="90" as="geometry" />
        </mxCell>
        <mxCell id="KmVvA8LDP8XXERMTgrcq-31" value="&lt;div style=&quot;text-align: center;&quot;&gt;&lt;span style=&quot;font-size: 30px;&quot;&gt;&lt;b style=&quot;&quot;&gt;&lt;font face=&quot;宋体&quot;&gt;代码编辑器&lt;/font&gt;&lt;/b&gt;&lt;/span&gt;&lt;/div&gt;" style="rounded=0;whiteSpace=wrap;html=1;strokeWidth=2;" parent="1" vertex="1">
          <mxGeometry x="-600" y="-1080" width="281.5" height="90" as="geometry" />
        </mxCell>
        <mxCell id="KmVvA8LDP8XXERMTgrcq-32" value="&lt;div style=&quot;text-align: center;&quot;&gt;&lt;span style=&quot;font-size: 30px;&quot;&gt;&lt;b style=&quot;&quot;&gt;&lt;font face=&quot;宋体&quot;&gt;（函数）节点编辑器&lt;/font&gt;&lt;/b&gt;&lt;/span&gt;&lt;/div&gt;" style="rounded=0;whiteSpace=wrap;html=1;strokeWidth=2;" parent="1" vertex="1">
          <mxGeometry x="-1630" y="-1177" width="281.5" height="90" as="geometry" />
        </mxCell>
        <mxCell id="KmVvA8LDP8XXERMTgrcq-34" value="&lt;div style=&quot;text-align: center;&quot;&gt;&lt;b style=&quot;font-size: 30px; background-color: initial;&quot;&gt;&lt;font face=&quot;宋体&quot;&gt;脚本编译器&lt;/font&gt;&lt;/b&gt;&lt;/div&gt;" style="rounded=0;whiteSpace=wrap;html=1;strokeWidth=2;" parent="1" vertex="1">
          <mxGeometry x="-1310" y="-1047" width="281.5" height="90" as="geometry" />
        </mxCell>
        <mxCell id="KmVvA8LDP8XXERMTgrcq-35" value="&lt;div style=&quot;text-align: center;&quot;&gt;&lt;span style=&quot;font-size: 30px;&quot;&gt;&lt;b style=&quot;&quot;&gt;&lt;font face=&quot;宋体&quot;&gt;（函数）节点接口&lt;/font&gt;&lt;/b&gt;&lt;/span&gt;&lt;/div&gt;" style="rounded=0;whiteSpace=wrap;html=1;strokeWidth=2;dashed=1;" parent="1" vertex="1">
          <mxGeometry x="-1630" y="-1047" width="281.5" height="90" as="geometry" />
        </mxCell>
        <mxCell id="KmVvA8LDP8XXERMTgrcq-38" value="Use" style="endArrow=open;endSize=12;dashed=1;html=1;rounded=0;entryX=0.5;entryY=0;entryDx=0;entryDy=0;" parent="1" source="KmVvA8LDP8XXERMTgrcq-32" target="KmVvA8LDP8XXERMTgrcq-35" edge="1">
          <mxGeometry width="160" relative="1" as="geometry">
            <mxPoint x="-1430" y="-957" as="sourcePoint" />
            <mxPoint x="-1270" y="-957" as="targetPoint" />
          </mxGeometry>
        </mxCell>
        <mxCell id="KmVvA8LDP8XXERMTgrcq-39" value="" style="endArrow=block;dashed=1;endFill=0;endSize=12;html=1;rounded=0;" parent="1" source="KmVvA8LDP8XXERMTgrcq-30" target="KmVvA8LDP8XXERMTgrcq-35" edge="1">
          <mxGeometry width="160" relative="1" as="geometry">
            <mxPoint x="-1430" y="-957" as="sourcePoint" />
            <mxPoint x="-1270" y="-957" as="targetPoint" />
          </mxGeometry>
        </mxCell>
        <mxCell id="KmVvA8LDP8XXERMTgrcq-40" value="Use" style="endArrow=open;endSize=12;dashed=1;html=1;rounded=0;entryX=1;entryY=0.5;entryDx=0;entryDy=0;exitX=0;exitY=0.5;exitDx=0;exitDy=0;" parent="1" source="KmVvA8LDP8XXERMTgrcq-34" target="KmVvA8LDP8XXERMTgrcq-35" edge="1">
          <mxGeometry width="160" relative="1" as="geometry">
            <mxPoint x="-1479" y="-1077" as="sourcePoint" />
            <mxPoint x="-1479" y="-1037" as="targetPoint" />
          </mxGeometry>
        </mxCell>
        <mxCell id="KmVvA8LDP8XXERMTgrcq-41" value="&lt;div style=&quot;text-align: start;&quot;&gt;&lt;font face=&quot;宋体&quot;&gt;&lt;span style=&quot;font-size: 30px;&quot;&gt;&lt;b&gt;数据管理组件&lt;/b&gt;&lt;/span&gt;&lt;/font&gt;&lt;/div&gt;" style="rounded=0;whiteSpace=wrap;html=1;strokeWidth=2;" parent="1" vertex="1">
          <mxGeometry x="-900" y="-430" width="281.5" height="90" as="geometry" />
        </mxCell>
        <mxCell id="KmVvA8LDP8XXERMTgrcq-57" value="" style="edgeStyle=orthogonalEdgeStyle;rounded=0;orthogonalLoop=1;jettySize=auto;html=1;strokeWidth=3;" parent="1" source="KmVvA8LDP8XXERMTgrcq-42" target="KmVvA8LDP8XXERMTgrcq-41" edge="1">
          <mxGeometry relative="1" as="geometry" />
        </mxCell>
        <mxCell id="KmVvA8LDP8XXERMTgrcq-55" value="" style="edgeStyle=orthogonalEdgeStyle;rounded=0;orthogonalLoop=1;jettySize=auto;html=1;strokeWidth=3;" parent="1" source="KmVvA8LDP8XXERMTgrcq-43" target="KmVvA8LDP8XXERMTgrcq-49" edge="1">
          <mxGeometry relative="1" as="geometry" />
        </mxCell>
        <mxCell id="KmVvA8LDP8XXERMTgrcq-43" value="&lt;div style=&quot;text-align: center;&quot;&gt;&lt;b style=&quot;font-size: 30px; background-color: initial;&quot;&gt;&lt;font face=&quot;宋体&quot;&gt;脚本编译器&lt;/font&gt;&lt;/b&gt;&lt;/div&gt;" style="rounded=0;whiteSpace=wrap;html=1;strokeWidth=2;" parent="1" vertex="1">
          <mxGeometry x="-900" y="-810" width="580" height="90" as="geometry" />
        </mxCell>
        <mxCell id="KmVvA8LDP8XXERMTgrcq-51" style="edgeStyle=orthogonalEdgeStyle;rounded=0;orthogonalLoop=1;jettySize=auto;html=1;exitX=0.5;exitY=1;exitDx=0;exitDy=0;entryX=0.5;entryY=0;entryDx=0;entryDy=0;strokeWidth=3;" parent="1" source="KmVvA8LDP8XXERMTgrcq-44" target="KmVvA8LDP8XXERMTgrcq-50" edge="1">
          <mxGeometry relative="1" as="geometry" />
        </mxCell>
        <mxCell id="KmVvA8LDP8XXERMTgrcq-44" value="&lt;div style=&quot;text-align: center;&quot;&gt;&lt;span style=&quot;font-size: 30px;&quot;&gt;&lt;b style=&quot;&quot;&gt;&lt;font face=&quot;宋体&quot;&gt;（函数）节点编辑器&lt;/font&gt;&lt;/b&gt;&lt;/span&gt;&lt;/div&gt;" style="rounded=0;whiteSpace=wrap;html=1;strokeWidth=2;" parent="1" vertex="1">
          <mxGeometry x="-900" y="-1080" width="281.5" height="90" as="geometry" />
        </mxCell>
        <mxCell id="KmVvA8LDP8XXERMTgrcq-54" value="" style="edgeStyle=orthogonalEdgeStyle;rounded=0;orthogonalLoop=1;jettySize=auto;html=1;strokeWidth=3;" parent="1" source="KmVvA8LDP8XXERMTgrcq-45" target="KmVvA8LDP8XXERMTgrcq-43" edge="1">
          <mxGeometry relative="1" as="geometry" />
        </mxCell>
        <mxCell id="KmVvA8LDP8XXERMTgrcq-45" value="&lt;div style=&quot;text-align: center;&quot;&gt;&lt;font face=&quot;宋体&quot;&gt;&lt;span style=&quot;font-size: 30px;&quot;&gt;&lt;b&gt;用户代码脚本&lt;/b&gt;&lt;/span&gt;&lt;/font&gt;&lt;/div&gt;" style="rounded=0;whiteSpace=wrap;html=1;strokeWidth=2;" parent="1" vertex="1">
          <mxGeometry x="-600" y="-960" width="281.5" height="90" as="geometry" />
        </mxCell>
        <mxCell id="KmVvA8LDP8XXERMTgrcq-56" value="" style="edgeStyle=orthogonalEdgeStyle;rounded=0;orthogonalLoop=1;jettySize=auto;html=1;strokeWidth=3;" parent="1" source="KmVvA8LDP8XXERMTgrcq-49" target="KmVvA8LDP8XXERMTgrcq-42" edge="1">
          <mxGeometry relative="1" as="geometry" />
        </mxCell>
        <mxCell id="KmVvA8LDP8XXERMTgrcq-49" value="&lt;div style=&quot;text-align: center;&quot;&gt;&lt;font face=&quot;宋体&quot;&gt;&lt;span style=&quot;font-size: 30px;&quot;&gt;&lt;b&gt;可运行代码&lt;/b&gt;&lt;/span&gt;&lt;/font&gt;&lt;/div&gt;" style="rounded=0;whiteSpace=wrap;html=1;strokeWidth=2;" parent="1" vertex="1">
          <mxGeometry x="-750.75" y="-695" width="281.5" height="90" as="geometry" />
        </mxCell>
        <mxCell id="KmVvA8LDP8XXERMTgrcq-53" style="edgeStyle=orthogonalEdgeStyle;rounded=0;orthogonalLoop=1;jettySize=auto;html=1;exitX=0.5;exitY=1;exitDx=0;exitDy=0;strokeWidth=3;" parent="1" source="KmVvA8LDP8XXERMTgrcq-50" target="KmVvA8LDP8XXERMTgrcq-43" edge="1">
          <mxGeometry relative="1" as="geometry" />
        </mxCell>
        <mxCell id="KmVvA8LDP8XXERMTgrcq-50" value="&lt;div style=&quot;text-align: center;&quot;&gt;&lt;font face=&quot;宋体&quot;&gt;&lt;span style=&quot;font-size: 30px;&quot;&gt;&lt;b&gt;节点脚本&lt;/b&gt;&lt;/span&gt;&lt;/font&gt;&lt;/div&gt;" style="rounded=0;whiteSpace=wrap;html=1;strokeWidth=2;" parent="1" vertex="1">
          <mxGeometry x="-900" y="-960" width="281.5" height="90" as="geometry" />
        </mxCell>
        <mxCell id="KmVvA8LDP8XXERMTgrcq-52" style="edgeStyle=orthogonalEdgeStyle;rounded=0;orthogonalLoop=1;jettySize=auto;html=1;exitX=0.5;exitY=1;exitDx=0;exitDy=0;entryX=0.508;entryY=0.02;entryDx=0;entryDy=0;entryPerimeter=0;strokeWidth=3;" parent="1" source="KmVvA8LDP8XXERMTgrcq-31" target="KmVvA8LDP8XXERMTgrcq-45" edge="1">
          <mxGeometry relative="1" as="geometry" />
        </mxCell>
        <mxCell id="KmVvA8LDP8XXERMTgrcq-42" value="&lt;div style=&quot;text-align: center;&quot;&gt;&lt;span style=&quot;font-size: 30px;&quot;&gt;&lt;b style=&quot;&quot;&gt;&lt;font face=&quot;宋体&quot;&gt;核心算法库&lt;/font&gt;&lt;/b&gt;&lt;/span&gt;&lt;/div&gt;" style="rounded=0;whiteSpace=wrap;html=1;strokeWidth=2;" parent="1" vertex="1">
          <mxGeometry x="-750.75" y="-565" width="281.5" height="90" as="geometry" />
        </mxCell>
        <mxCell id="KmVvA8LDP8XXERMTgrcq-33" value="&lt;div style=&quot;text-align: start;&quot;&gt;&lt;font face=&quot;宋体&quot;&gt;&lt;b style=&quot;font-size: 30px; background-color: initial;&quot;&gt;交互式地图组件&lt;/b&gt;&lt;/font&gt;&lt;/div&gt;" style="rounded=0;whiteSpace=wrap;html=1;strokeWidth=2;" parent="1" vertex="1">
          <mxGeometry x="-601.5" y="-430" width="281.5" height="90" as="geometry" />
        </mxCell>
        <mxCell id="C5DE6ZinwFhIqG3FFzgF-5" value="" style="edgeStyle=orthogonalEdgeStyle;rounded=0;orthogonalLoop=1;jettySize=auto;html=1;strokeWidth=3;curved=1;dashed=1;" parent="1" edge="1">
          <mxGeometry relative="1" as="geometry">
            <mxPoint x="-630" y="-410.03" as="sourcePoint" />
            <mxPoint x="-590" y="-370.03" as="targetPoint" />
            <Array as="points">
              <mxPoint x="-630" y="-450.03" />
              <mxPoint x="-550" y="-450.03" />
              <mxPoint x="-550" y="-370.03" />
            </Array>
          </mxGeometry>
        </mxCell>
        <mxCell id="C5DE6ZinwFhIqG3FFzgF-6" value="&lt;font face=&quot;宋体&quot; style=&quot;font-size: 20px;&quot;&gt;渲染循环&lt;/font&gt;" style="text;html=1;align=center;verticalAlign=middle;whiteSpace=wrap;rounded=0;fontStyle=1" parent="1" vertex="1">
          <mxGeometry x="-559.25" y="-460" width="90" height="30" as="geometry" />
        </mxCell>
        <mxCell id="uGt8lklGZgvVp7n6hmtw-1" value="&lt;div style=&quot;text-align: center;&quot;&gt;&lt;span style=&quot;font-size: 30px;&quot;&gt;&lt;b style=&quot;&quot;&gt;&lt;font face=&quot;Times New Roman&quot;&gt;render&lt;/font&gt;&lt;/b&gt;&lt;/span&gt;&lt;/div&gt;" style="rounded=0;whiteSpace=wrap;html=1;strokeWidth=2;" parent="1" vertex="1">
          <mxGeometry x="-1441.5" y="-90" width="701.5" height="90" as="geometry" />
        </mxCell>
        <mxCell id="uGt8lklGZgvVp7n6hmtw-2" value="&lt;div style=&quot;text-align: center;&quot;&gt;&lt;font face=&quot;宋体&quot;&gt;&lt;span style=&quot;font-size: 30px;&quot;&gt;&lt;b&gt;矢量渲染接口集&lt;/b&gt;&lt;/span&gt;&lt;/font&gt;&lt;/div&gt;" style="rounded=0;whiteSpace=wrap;html=1;strokeWidth=2;" parent="1" vertex="1">
          <mxGeometry x="-1160" width="420" height="90" as="geometry" />
        </mxCell>
        <mxCell id="uGt8lklGZgvVp7n6hmtw-3" value="&lt;div style=&quot;text-align: center;&quot;&gt;&lt;font face=&quot;宋体&quot;&gt;&lt;span style=&quot;font-size: 30px;&quot;&gt;&lt;b&gt;栅格渲染函数集&lt;/b&gt;&lt;/span&gt;&lt;/font&gt;&lt;/div&gt;" style="rounded=0;whiteSpace=wrap;html=1;strokeWidth=2;" parent="1" vertex="1">
          <mxGeometry x="-1441.5" width="281.5" height="90" as="geometry" />
        </mxCell>
        <mxCell id="uGt8lklGZgvVp7n6hmtw-5" value="&lt;div style=&quot;text-align: center;&quot;&gt;&lt;font face=&quot;Times New Roman&quot;&gt;&lt;span style=&quot;font-size: 30px;&quot;&gt;&lt;b&gt;2D Canvas&lt;/b&gt;&lt;/span&gt;&lt;/font&gt;&lt;/div&gt;" style="rounded=0;whiteSpace=wrap;html=1;strokeWidth=2;" parent="1" vertex="1">
          <mxGeometry x="-1441.5" y="90" width="281.5" height="180" as="geometry" />
        </mxCell>
        <mxCell id="uGt8lklGZgvVp7n6hmtw-6" value="&lt;div style=&quot;text-align: center;&quot;&gt;&lt;font face=&quot;Times New Roman&quot;&gt;&lt;span style=&quot;font-size: 30px;&quot;&gt;&lt;b&gt;Leaflet.js&lt;/b&gt;&lt;/span&gt;&lt;/font&gt;&lt;/div&gt;" style="rounded=0;whiteSpace=wrap;html=1;strokeWidth=2;" parent="1" vertex="1">
          <mxGeometry x="-1160" y="180" width="140" height="90" as="geometry" />
        </mxCell>
        <mxCell id="uGt8lklGZgvVp7n6hmtw-7" value="&lt;div style=&quot;text-align: center;&quot;&gt;&lt;font face=&quot;宋体&quot;&gt;&lt;span style=&quot;font-size: 30px;&quot;&gt;&lt;b&gt;百度地图&lt;/b&gt;&lt;/span&gt;&lt;/font&gt;&lt;/div&gt;" style="rounded=0;whiteSpace=wrap;html=1;strokeWidth=2;" parent="1" vertex="1">
          <mxGeometry x="-1020" y="180" width="141.5" height="90" as="geometry" />
        </mxCell>
        <mxCell id="uGt8lklGZgvVp7n6hmtw-8" value="&lt;div style=&quot;text-align: center;&quot;&gt;&lt;font face=&quot;宋体&quot;&gt;&lt;span style=&quot;font-size: 30px;&quot;&gt;&lt;b&gt;高德地图&lt;/b&gt;&lt;/span&gt;&lt;/font&gt;&lt;/div&gt;" style="rounded=0;whiteSpace=wrap;html=1;strokeWidth=2;" parent="1" vertex="1">
          <mxGeometry x="-878.5" y="180" width="139.25" height="90" as="geometry" />
        </mxCell>
        <mxCell id="uGt8lklGZgvVp7n6hmtw-10" value="&lt;div style=&quot;text-align: center;&quot;&gt;&lt;font face=&quot;宋体&quot;&gt;&lt;span style=&quot;font-size: 30px;&quot;&gt;&lt;b&gt;适配器函数&lt;/b&gt;&lt;/span&gt;&lt;/font&gt;&lt;/div&gt;" style="rounded=0;whiteSpace=wrap;html=1;strokeWidth=2;" parent="1" vertex="1">
          <mxGeometry x="-1160" y="90" width="420" height="90" as="geometry" />
        </mxCell>
        <mxCell id="uGt8lklGZgvVp7n6hmtw-13" value="&lt;font size=&quot;1&quot; face=&quot;Times New Roman&quot;&gt;&lt;b style=&quot;font-size: 30px;&quot;&gt;Base&lt;/b&gt;&lt;/font&gt;" style="text;html=1;align=center;verticalAlign=middle;whiteSpace=wrap;rounded=0;" parent="1" vertex="1">
          <mxGeometry x="-215" y="510" width="60" height="30" as="geometry" />
        </mxCell>
        <mxCell id="uGt8lklGZgvVp7n6hmtw-14" value="&lt;font face=&quot;Times New Roman&quot;&gt;&lt;span style=&quot;font-size: 30px;&quot;&gt;&lt;b&gt;Analysis&lt;/b&gt;&lt;/span&gt;&lt;/font&gt;" style="text;html=1;align=center;verticalAlign=middle;whiteSpace=wrap;rounded=0;" parent="1" vertex="1">
          <mxGeometry x="-215" y="290" width="115" height="30" as="geometry" />
        </mxCell>
        <mxCell id="uGt8lklGZgvVp7n6hmtw-15" value="&lt;div style=&quot;text-align: center;&quot;&gt;&lt;font face=&quot;Times New Roman&quot;&gt;&lt;span style=&quot;font-size: 30px;&quot;&gt;&lt;b&gt;coverage analysis&lt;/b&gt;&lt;/span&gt;&lt;/font&gt;&lt;/div&gt;" style="rounded=0;whiteSpace=wrap;html=1;strokeWidth=2;" parent="1" vertex="1">
          <mxGeometry x="235" y="320" width="335" height="160" as="geometry" />
        </mxCell>
        <mxCell id="ZBDFL56P3JJD4eZlMljl-41" value="" style="edgeStyle=orthogonalEdgeStyle;rounded=0;orthogonalLoop=1;jettySize=auto;html=1;entryX=1;entryY=0.5;entryDx=0;entryDy=0;strokeWidth=2;curved=1;" edge="1" parent="1" source="ZBDFL56P3JJD4eZlMljl-1" target="ZBDFL56P3JJD4eZlMljl-25">
          <mxGeometry relative="1" as="geometry" />
        </mxCell>
        <mxCell id="ZBDFL56P3JJD4eZlMljl-1" value="&lt;div style=&quot;text-align: center;&quot;&gt;&lt;span style=&quot;background-color: initial; font-size: 30px;&quot;&gt;&lt;font face=&quot;Times New Roman&quot;&gt;&lt;b&gt;SphericalMercator&lt;/b&gt;&lt;/font&gt;&lt;/span&gt;&lt;/div&gt;" style="rounded=0;whiteSpace=wrap;html=1;strokeWidth=2;" vertex="1" parent="1">
          <mxGeometry x="1520" y="-120" width="340" height="40" as="geometry" />
        </mxCell>
        <mxCell id="ZBDFL56P3JJD4eZlMljl-2" value="&lt;div style=&quot;text-align: center;&quot;&gt;&lt;font face=&quot;Times New Roman&quot;&gt;&lt;span style=&quot;font-size: 30px;&quot;&gt;&lt;b&gt;earth&lt;/b&gt;&lt;/span&gt;&lt;/font&gt;&lt;/div&gt;" style="rounded=0;whiteSpace=wrap;html=1;strokeWidth=2;" vertex="1" parent="1">
          <mxGeometry x="1040" y="-120" width="340" height="40" as="geometry" />
        </mxCell>
        <mxCell id="ZBDFL56P3JJD4eZlMljl-39" value="" style="edgeStyle=orthogonalEdgeStyle;rounded=0;orthogonalLoop=1;jettySize=auto;html=1;entryX=0;entryY=1;entryDx=0;entryDy=0;curved=1;endArrow=block;endFill=0;strokeWidth=2;" edge="1" parent="1" source="ZBDFL56P3JJD4eZlMljl-3" target="ZBDFL56P3JJD4eZlMljl-23">
          <mxGeometry relative="1" as="geometry" />
        </mxCell>
        <mxCell id="ZBDFL56P3JJD4eZlMljl-3" value="&lt;div style=&quot;text-align: center;&quot;&gt;&lt;span style=&quot;background-color: initial; font-size: 30px;&quot;&gt;&lt;font face=&quot;Times New Roman&quot;&gt;&lt;b&gt;EPSG3857&lt;/b&gt;&lt;/font&gt;&lt;/span&gt;&lt;span style=&quot;color: rgba(0, 0, 0, 0); font-family: monospace; font-size: 0px; text-align: start; text-wrap: nowrap; background-color: initial;&quot;&gt;%3CmxGraphModel%3E%3Croot%3E%3CmxCell%20id%3D%220%22%2F%3E%3CmxCell%20id%3D%221%22%20parent%3D%220%22%2F%3E%3CmxCell%20id%3D%222%22%20value%3D%22%26lt%3Bdiv%20style%3D%26quot%3Btext-align%3A%20center%3B%26quot%3B%26gt%3B%26lt%3Bfont%20face%3D%26quot%3BTimes%20New%20Roman%26quot%3B%26gt%3B%26lt%3Bspan%20style%3D%26quot%3Bfont-size%3A%2030px%3B%26quot%3B%26gt%3B%26lt%3Bb%26gt%3Bearth%26lt%3B%2Fb%26gt%3B%26lt%3B%2Fspan%26gt%3B%26lt%3B%2Ffont%26gt%3B%26lt%3B%2Fdiv%26gt%3B%22%20style%3D%22rounded%3D0%3BwhiteSpace%3Dwrap%3Bhtml%3D1%3BstrokeWidth%3D2%3B%22%20vertex%3D%221%22%20parent%3D%221%22%3E%3CmxGeometry%20x%3D%221010%22%20y%3D%22-110%22%20width%3D%22335%22%20height%3D%22160%22%20as%3D%22geometry%22%2F%3E%3C%2FmxCell%3E%3C%2Froot%3E%3C%2FmxGraphModel%3E&lt;/span&gt;&lt;/div&gt;" style="rounded=0;whiteSpace=wrap;html=1;strokeWidth=2;" vertex="1" parent="1">
          <mxGeometry x="1040" y="160" width="340" height="40" as="geometry" />
        </mxCell>
        <mxCell id="ZBDFL56P3JJD4eZlMljl-9" value="&lt;div style=&quot;text-align: center;&quot;&gt;&lt;font face=&quot;Times New Roman&quot;&gt;&lt;span style=&quot;font-size: 30px;&quot;&gt;&lt;b&gt;&lt;i&gt;area&lt;/i&gt;&lt;/b&gt;&lt;/span&gt;&lt;/font&gt;&lt;/div&gt;" style="rounded=0;whiteSpace=wrap;html=1;strokeWidth=2;" vertex="1" parent="1">
          <mxGeometry x="1040" width="160" height="40" as="geometry" />
        </mxCell>
        <mxCell id="ZBDFL56P3JJD4eZlMljl-10" value="&lt;div style=&quot;text-align: center;&quot;&gt;&lt;font face=&quot;Times New Roman&quot;&gt;&lt;span style=&quot;font-size: 30px;&quot;&gt;&lt;b&gt;&lt;i&gt;distance&lt;/i&gt;&lt;/b&gt;&lt;/span&gt;&lt;/font&gt;&lt;/div&gt;" style="rounded=0;whiteSpace=wrap;html=1;strokeWidth=2;" vertex="1" parent="1">
          <mxGeometry x="1040" y="-40" width="140" height="40" as="geometry" />
        </mxCell>
        <mxCell id="ZBDFL56P3JJD4eZlMljl-12" value="&lt;div style=&quot;text-align: center;&quot;&gt;&lt;span style=&quot;font-family: &amp;quot;Times New Roman&amp;quot;; font-size: 30px;&quot;&gt;&lt;i&gt;haversine()&lt;/i&gt;&lt;/span&gt;&lt;br&gt;&lt;/div&gt;" style="rounded=0;whiteSpace=wrap;html=1;strokeWidth=2;" vertex="1" parent="1">
          <mxGeometry x="1180" y="-40" width="200" height="40" as="geometry" />
        </mxCell>
        <mxCell id="ZBDFL56P3JJD4eZlMljl-13" value="&lt;div style=&quot;text-align: center;&quot;&gt;&lt;span style=&quot;font-family: &amp;quot;Times New Roman&amp;quot;; font-size: 30px;&quot;&gt;&lt;i&gt;sphericalArea()&lt;/i&gt;&lt;/span&gt;&lt;br&gt;&lt;/div&gt;" style="rounded=0;whiteSpace=wrap;html=1;strokeWidth=2;" vertex="1" parent="1">
          <mxGeometry x="1180" width="200" height="40" as="geometry" />
        </mxCell>
        <mxCell id="ZBDFL56P3JJD4eZlMljl-14" value="&lt;div style=&quot;text-align: center;&quot;&gt;&lt;font face=&quot;Times New Roman&quot;&gt;&lt;span style=&quot;font-size: 30px;&quot;&gt;&lt;b&gt;Radius&lt;/b&gt;&lt;/span&gt;&lt;/font&gt;&lt;/div&gt;" style="rounded=0;whiteSpace=wrap;html=1;strokeWidth=2;" vertex="1" parent="1">
          <mxGeometry x="1040" y="-80" width="160" height="40" as="geometry" />
        </mxCell>
        <mxCell id="ZBDFL56P3JJD4eZlMljl-15" value="&lt;div style=&quot;text-align: center;&quot;&gt;&lt;font face=&quot;Times New Roman&quot;&gt;&lt;span style=&quot;font-size: 30px;&quot;&gt;6371000 m&lt;/span&gt;&lt;/font&gt;&lt;/div&gt;" style="rounded=0;whiteSpace=wrap;html=1;strokeWidth=2;" vertex="1" parent="1">
          <mxGeometry x="1180" y="-80" width="200" height="40" as="geometry" />
        </mxCell>
        <mxCell id="ZBDFL56P3JJD4eZlMljl-16" value="&lt;div style=&quot;text-align: center;&quot;&gt;&lt;font face=&quot;Times New Roman&quot;&gt;&lt;span style=&quot;font-size: 30px;&quot;&gt;&lt;b&gt;&lt;i&gt;area&lt;/i&gt;&lt;/b&gt;&lt;/span&gt;&lt;/font&gt;&lt;/div&gt;" style="rounded=0;whiteSpace=wrap;html=1;strokeWidth=2;" vertex="1" parent="1">
          <mxGeometry x="1040" y="280" width="160" height="40" as="geometry" />
        </mxCell>
        <mxCell id="ZBDFL56P3JJD4eZlMljl-17" value="&lt;div style=&quot;text-align: center;&quot;&gt;&lt;font face=&quot;Times New Roman&quot;&gt;&lt;span style=&quot;font-size: 30px;&quot;&gt;&lt;b&gt;&lt;i&gt;distance&lt;/i&gt;&lt;/b&gt;&lt;/span&gt;&lt;/font&gt;&lt;/div&gt;" style="rounded=0;whiteSpace=wrap;html=1;strokeWidth=2;" vertex="1" parent="1">
          <mxGeometry x="1040" y="240" width="160" height="40" as="geometry" />
        </mxCell>
        <mxCell id="ZBDFL56P3JJD4eZlMljl-18" value="&lt;div style=&quot;text-align: center;&quot;&gt;&lt;font face=&quot;Times New Roman&quot;&gt;&lt;span style=&quot;font-size: 30px;&quot;&gt;&lt;i&gt;haversine()&lt;/i&gt;&lt;/span&gt;&lt;/font&gt;&lt;/div&gt;" style="rounded=0;whiteSpace=wrap;html=1;strokeWidth=2;" vertex="1" parent="1">
          <mxGeometry x="1200" y="240" width="180" height="40" as="geometry" />
        </mxCell>
        <mxCell id="ZBDFL56P3JJD4eZlMljl-19" value="&lt;div style=&quot;text-align: center;&quot;&gt;&lt;font face=&quot;Times New Roman&quot;&gt;&lt;span style=&quot;font-size: 30px;&quot;&gt;&lt;i&gt;shoelance()&lt;/i&gt;&lt;/span&gt;&lt;/font&gt;&lt;/div&gt;" style="rounded=0;whiteSpace=wrap;html=1;strokeWidth=2;" vertex="1" parent="1">
          <mxGeometry x="1200" y="280" width="180" height="40" as="geometry" />
        </mxCell>
        <mxCell id="ZBDFL56P3JJD4eZlMljl-20" value="&lt;div style=&quot;text-align: center;&quot;&gt;&lt;font face=&quot;Times New Roman&quot;&gt;&lt;span style=&quot;font-size: 30px;&quot;&gt;&lt;b&gt;Radius&lt;/b&gt;&lt;/span&gt;&lt;/font&gt;&lt;/div&gt;" style="rounded=0;whiteSpace=wrap;html=1;strokeWidth=2;" vertex="1" parent="1">
          <mxGeometry x="1040" y="200" width="160" height="40" as="geometry" />
        </mxCell>
        <mxCell id="ZBDFL56P3JJD4eZlMljl-21" value="&lt;div style=&quot;text-align: center;&quot;&gt;&lt;font face=&quot;Times New Roman&quot;&gt;&lt;span style=&quot;font-size: 30px;&quot;&gt;6378137 m&lt;/span&gt;&lt;/font&gt;&lt;/div&gt;" style="rounded=0;whiteSpace=wrap;html=1;strokeWidth=2;" vertex="1" parent="1">
          <mxGeometry x="1200" y="200" width="180" height="40" as="geometry" />
        </mxCell>
        <mxCell id="ZBDFL56P3JJD4eZlMljl-22" value="&lt;div style=&quot;text-align: center;&quot;&gt;&lt;font face=&quot;Times New Roman&quot;&gt;&lt;span style=&quot;font-size: 30px;&quot;&gt;&lt;b&gt;&lt;i&gt;Projection&lt;/i&gt;&lt;/b&gt;&lt;/span&gt;&lt;/font&gt;&lt;/div&gt;" style="rounded=0;whiteSpace=wrap;html=1;strokeWidth=2;" vertex="1" parent="1">
          <mxGeometry x="1040" y="40" width="160" height="40" as="geometry" />
        </mxCell>
        <mxCell id="ZBDFL56P3JJD4eZlMljl-23" value="&lt;div style=&quot;text-align: center;&quot;&gt;&lt;font face=&quot;Times New Roman&quot;&gt;&lt;span style=&quot;font-size: 30px;&quot;&gt;&lt;i&gt;null&lt;/i&gt;&lt;/span&gt;&lt;/font&gt;&lt;/div&gt;" style="rounded=0;whiteSpace=wrap;html=1;strokeWidth=2;" vertex="1" parent="1">
          <mxGeometry x="1200" y="40" width="180" height="40" as="geometry" />
        </mxCell>
        <mxCell id="ZBDFL56P3JJD4eZlMljl-24" value="&lt;div style=&quot;text-align: center;&quot;&gt;&lt;font face=&quot;Times New Roman&quot;&gt;&lt;span style=&quot;font-size: 30px;&quot;&gt;&lt;b&gt;&lt;i&gt;Projection&lt;/i&gt;&lt;/b&gt;&lt;/span&gt;&lt;/font&gt;&lt;/div&gt;" style="rounded=0;whiteSpace=wrap;html=1;strokeWidth=2;" vertex="1" parent="1">
          <mxGeometry x="1040" y="320" width="160" height="40" as="geometry" />
        </mxCell>
        <mxCell id="ZBDFL56P3JJD4eZlMljl-25" value="&lt;div style=&quot;text-align: center;&quot;&gt;&lt;i&gt;&lt;font face=&quot;Georgia&quot; style=&quot;font-size: 20px;&quot;&gt;f()&lt;/font&gt;&lt;/i&gt;&lt;/div&gt;" style="rounded=0;whiteSpace=wrap;html=1;strokeWidth=2;" vertex="1" parent="1">
          <mxGeometry x="1200" y="320" width="180" height="40" as="geometry" />
        </mxCell>
        <mxCell id="ZBDFL56P3JJD4eZlMljl-34" value="&lt;div style=&quot;text-align: center;&quot;&gt;&lt;font face=&quot;Times New Roman&quot;&gt;&lt;span style=&quot;font-size: 30px;&quot;&gt;&lt;i&gt;project()&lt;/i&gt;&lt;/span&gt;&lt;/font&gt;&lt;/div&gt;" style="rounded=0;whiteSpace=wrap;html=1;strokeWidth=2;" vertex="1" parent="1">
          <mxGeometry x="1520" y="-80" width="340" height="40" as="geometry" />
        </mxCell>
        <mxCell id="ZBDFL56P3JJD4eZlMljl-36" value="&lt;div style=&quot;text-align: center;&quot;&gt;&lt;font face=&quot;Times New Roman&quot;&gt;&lt;span style=&quot;font-size: 30px;&quot;&gt;&lt;i&gt;unproject()&lt;/i&gt;&lt;/span&gt;&lt;/font&gt;&lt;/div&gt;" style="rounded=0;whiteSpace=wrap;html=1;strokeWidth=2;" vertex="1" parent="1">
          <mxGeometry x="1520" y="-40" width="340" height="40" as="geometry" />
        </mxCell>
        <mxCell id="ZBDFL56P3JJD4eZlMljl-43" value="&lt;div style=&quot;text-align: center;&quot;&gt;&lt;font face=&quot;Times New Roman&quot;&gt;&lt;span style=&quot;font-size: 30px;&quot;&gt;&lt;b&gt;other projections&lt;/b&gt;&lt;/span&gt;&lt;/font&gt;&lt;/div&gt;" style="rounded=0;whiteSpace=wrap;html=1;strokeWidth=2;dashed=1;" vertex="1" parent="1">
          <mxGeometry x="1520" y="20" width="340" height="40" as="geometry" />
        </mxCell>
        <mxCell id="ZBDFL56P3JJD4eZlMljl-44" value="&lt;div style=&quot;text-align: center;&quot;&gt;&lt;font face=&quot;Times New Roman&quot;&gt;&lt;span style=&quot;font-size: 30px;&quot;&gt;&lt;i&gt;project()&lt;/i&gt;&lt;/span&gt;&lt;/font&gt;&lt;/div&gt;" style="rounded=0;whiteSpace=wrap;html=1;strokeWidth=2;dashed=1;" vertex="1" parent="1">
          <mxGeometry x="1520" y="60" width="340" height="40" as="geometry" />
        </mxCell>
        <mxCell id="ZBDFL56P3JJD4eZlMljl-45" value="&lt;div style=&quot;text-align: center;&quot;&gt;&lt;font face=&quot;Times New Roman&quot;&gt;&lt;span style=&quot;font-size: 30px;&quot;&gt;&lt;i&gt;unproject()&lt;/i&gt;&lt;/span&gt;&lt;/font&gt;&lt;/div&gt;" style="rounded=0;whiteSpace=wrap;html=1;strokeWidth=2;dashed=1;" vertex="1" parent="1">
          <mxGeometry x="1520" y="100" width="340" height="40" as="geometry" />
        </mxCell>
        <mxCell id="ZBDFL56P3JJD4eZlMljl-46" value="&lt;font face=&quot;Times New Roman&quot;&gt;&lt;span style=&quot;font-size: 30px;&quot;&gt;&lt;b&gt;CRS&lt;/b&gt;&lt;/span&gt;&lt;/font&gt;" style="text;html=1;align=center;verticalAlign=middle;whiteSpace=wrap;rounded=0;" vertex="1" parent="1">
          <mxGeometry x="980" y="-180" width="70" height="30" as="geometry" />
        </mxCell>
        <mxCell id="ZBDFL56P3JJD4eZlMljl-47" value="&lt;font face=&quot;Times New Roman&quot;&gt;&lt;span style=&quot;font-size: 30px;&quot;&gt;&lt;b&gt;Projection&lt;/b&gt;&lt;/span&gt;&lt;/font&gt;" style="text;html=1;align=center;verticalAlign=middle;whiteSpace=wrap;rounded=0;" vertex="1" parent="1">
          <mxGeometry x="1480" y="-180" width="140" height="30" as="geometry" />
        </mxCell>
      </root>
    </mxGraphModel>
  </diagram>
</mxfile>
